<?xml version="1.0" encoding="UTF-8"?>
<svg xmlns="http://www.w3.org/2000/svg" viewBox="0 0 500 500">
  <defs>
    <style>
      .cls-1 {
        fill: #000;
      }

      .cls-1, .cls-2 {
        stroke-width: 0px;
      }

      .cls-2 {
        fill: #fff;
      }
    </style>
  </defs>
  <g id="Layer_1" data-name="Layer 1">
    <rect class="cls-1" x="0" y="0" width="500" height="500" rx="250" ry="250"/>
  </g>
  <g id="Layer_2" data-name="Layer 2">
    <g>
      <path class="cls-2" d="M153.93,307.84l51.89-172.17h52.52l-79.72,228.93h-49.21L50,135.67h52.36l51.57,172.17Z"/>
      <path class="cls-2" d="M279.87,364.6v-228.93h80.19c27.78,0,48.84,5.32,63.21,15.96,14.36,10.64,21.54,26.23,21.54,46.78,0,11.22-2.88,21.1-8.65,29.64-5.77,8.54-13.79,14.81-24.06,18.79,11.74,2.94,20.99,8.86,27.75,17.77,6.76,8.91,10.14,19.81,10.14,32.7,0,22.01-7.02,38.68-21.07,50-14.05,11.32-34.07,17.09-60.06,17.3h-88.99ZM327.04,231.58h34.91c23.79-.42,35.69-9.91,35.69-28.46,0-10.38-3.01-17.85-9.04-22.41-6.03-4.56-15.54-6.84-28.54-6.84h-33.02v57.7ZM327.04,264.91v61.79h40.41c11.11,0,19.78-2.65,26.02-7.94,6.23-5.29,9.35-12.6,9.35-21.93,0-20.96-10.85-31.6-32.55-31.92h-43.24Z"/>
    </g>
  </g>
</svg>