<?xml version="1.0" encoding="UTF-8"?>
<svg id="Layer_1" data-name="Layer 1" xmlns="http://www.w3.org/2000/svg" viewBox="0 0 1000 1000">
  <defs>
    <style>
      .cls-1 {
        fill: #2a65f0;
      }

      .cls-1, .cls-2, .cls-3, .cls-4, .cls-5, .cls-6, .cls-7, .cls-8, .cls-9, .cls-10 {
        stroke-width: 0px;
      }

      .cls-2 {
        fill: #eaeaea;
      }

      .cls-3 {
        fill: #d1daf6;
      }

      .cls-4 {
        fill: #e9e9ea;
      }

      .cls-5 {
        fill: #2965f0;
      }

      .cls-6 {
        fill: #fdfdfe;
      }

      .cls-7 {
        fill: #becaf0;
      }

      .cls-8 {
        fill: #264de3;
      }

      .cls-9 {
        fill: #fff;
      }

      .cls-10 {
        fill: #b5c3f0;
      }
    </style>
  </defs>
  <path class="cls-8" d="M853.83,197.26v17.58c-3.96,6.69-2.89,14.32-3.55,21.49-6.32,69.31-12.22,138.65-18.41,207.98-6.82,76.45-13.86,152.87-20.73,229.31-7.14,79.36-14.29,158.71-21.09,238.1-.57,6.7-2.72,9.19-9.15,10.96-91.97,25.3-183.85,50.92-275.73,76.51-3.88,1.08-7.54,1.08-11.46-.01-92.19-25.73-184.38-51.43-276.65-76.87-5.37-1.48-7.17-3.57-7.65-9.02-5.55-64.15-11.38-128.28-17.11-192.41-4.8-53.77-9.52-107.55-14.32-161.33-5.61-62.84-11.28-125.68-16.88-188.52-4.82-54.1-9.52-108.2-14.45-162.29-1.09-11.96-1.43-11.93,10.77-11.93,228.57,0,457.14,0,685.71.02,3.56,0,7.13.28,10.69.43ZM303.62,612.9c8.13.07,16.25.19,24.38.21,56.9.12,113.8.22,170.7.33,0,46.82.01,93.65.02,140.47-29.78-7.82-59.5-15.87-89.38-23.29-6.87-1.71-9.47-4.91-9.91-11.72-1.13-17.51-3.08-34.98-4.14-52.5-.39-6.41-2.09-9.07-9.09-8.95-24.05.4-48.11.52-72.15-.05-8.09-.19-8.92,2.87-8.26,9.67,3.97,41.09,7.73,82.21,11.22,123.34.41,4.77,2.12,6.88,6.44,7.99,9.11,2.34,18.15,4.95,27.22,7.44,49.42,13.58,98.84,27.15,148.26,40.73l.83.41.89-.27c0,27.01-.03,54.02.01,81.03.02,10.44,1.11,11.01,11.39,8.14,45.2-12.59,90.44-25.02,135.64-37.58,26.19-7.28,52.37-14.62,78.5-22.11,3.84-1.1,8.41-1.66,8.65-7.58.37-9.04,1.2-18.07,1.93-27.09,1.36-16.76,2.7-33.52,4.22-50.26,2.42-26.7,5.06-53.38,7.45-80.08,1.58-17.71,2.74-35.47,4.35-53.18,2.34-25.73,5.02-51.43,7.35-77.16,1.6-17.71,2.69-35.47,4.28-53.19,2.36-26.38,5.06-52.73,7.44-79.1,1.54-17.07,2.36-34.21,4.25-51.23,3.06-27.62,5.53-55.29,7.56-83,1.23-16.75,2.44-33.56,4.94-50.14,1.1-7.33-1.04-8.41-7.22-8.4-90.71.09-181.42.13-272.13-.08-7.03-.02-8.8,2.43-8.73,9.06.28,26.36.09,52.72.07,79.08-3.88.2-7.75.58-11.63.58-67.22.15-134.44.39-201.66.2-7.85-.02-10.02,2.14-9.21,9.88,2.5,23.9,4.51,47.86,6.4,71.81.47,6.03,3.19,7.3,8.74,7.22,21.1-.3,42.21-.16,63.32-.11,48.05.11,96.1.27,144.15.41-.03,29.85-.06,59.71-.09,89.56-3.88.19-7.76.55-11.64.55-62.01.03-124.03.06-186.04-.04-5.69,0-10.08-.34-9.16,7.92,2.94,26.45,5.28,52.97,7.85,79.47.01,1.35.71,1.84,1.99,1.58Z"/>
  <path class="cls-9" d="M549.44,0c-1.88,10.3-.8,20.7-.7,31.04.06,6.12-1.24,8.46-7.97,8.22-15.89-.55-31.82-.27-47.73-.09-2.66.03-6.93-2.09-7,3.73-.07,5.79,4.14,3.86,6.86,3.89,16.23.15,32.48.31,48.7-.05,5.56-.12,7.14,1.53,7.08,7.06-.27,25.35-.27,50.7,0,76.05.06,5.57-1.6,7.09-7.11,7.05-31.17-.25-62.34-.24-93.52,0-5.41.04-7.45-1.29-7.17-6.98.45-9.08.44-18.21,0-27.29-.27-5.62,1.64-7.14,7.13-7.03,16.23.34,32.47.19,48.7.05,2.75-.02,6.94,1.79,6.79-3.96-.15-5.77-4.41-3.64-7.07-3.67-15.26-.19-30.55-.64-45.77.12-8.49.43-10.04-2.48-9.87-10.31.53-24.36.21-48.75.15-73.12C440.98,3.14,440.45,1.57,440.17,0c36.42,0,72.85,0,109.27,0Z"/>
  <path class="cls-9" d="M678.22,0c-.24,10.69-.8,21.38-.6,32.06.1,5.45-1.38,7.27-7.03,7.14-16.23-.37-32.47-.21-48.71-.04-2.67.03-6.91-2.04-6.93,3.8-.02,5.84,4.22,3.81,6.9,3.83,16.24.16,32.48.32,48.71-.05,5.61-.13,7.1,1.63,7.05,7.11-.26,25.35-.28,50.71.01,76.06.07,5.7-1.81,7.01-7.2,6.97-31.17-.23-62.35-.25-93.53.02-5.63.05-7.25-1.64-7-7.11.41-9.08.45-18.22,0-27.29-.29-5.78,1.92-7.02,7.23-6.88,13.31.34,26.67.74,39.92-.21,5.02-.36,14.89,5.29,14.69-3.8-.17-8.06-9.93-3.04-15.16-3.41-12.28-.85-24.68-.69-37-.12-7.31.34-9.98-1.32-9.77-9.34.6-23.06.25-46.15.17-69.23-.01-3.17.92-6.51-1.01-9.51C605.38,0,641.8,0,678.22,0Z"/>
  <path class="cls-9" d="M420.66,0c-2.37,11.89-.95,23.92-.88,35.86.04,6.86-1.02,9.69-8.88,9.3-15.56-.76-31.19-.02-46.79-.34-5.28-.11-7.46.99-7.18,6.84.5,10.39.43,20.83.02,31.22-.22,5.43,1.24,7.25,6.9,7.12,16.24-.37,32.5.09,48.75-.26,5.5-.12,7.33,1.41,7.11,7.02-.42,10.39-.43,20.83,0,31.22.24,5.69-1.76,7-7.16,6.96-30.87-.24-61.75-.34-92.62.06-6.69.09-7.99-2.08-7.95-8.24.25-39.36.14-78.73.1-118.09,0-2.89-.45-5.78-.69-8.67,36.42,0,72.85,0,109.27,0Z"/>
  <path class="cls-5" d="M500.58,343.85c.02-26.36.22-52.72-.07-79.08-.07-6.62,1.69-9.07,8.73-9.06,90.71.21,181.42.16,272.13.08,6.18,0,8.32,1.08,7.22,8.4-2.49,16.59-3.71,33.39-4.94,50.14-2.03,27.72-4.5,55.38-7.56,83-1.88,17.03-2.7,34.17-4.25,51.23-2.38,26.38-5.07,52.73-7.44,79.1-1.59,17.71-2.68,35.47-4.28,53.19-2.32,25.73-5.01,51.43-7.35,77.16-1.61,17.71-2.76,35.46-4.35,53.18-2.39,26.7-5.03,53.38-7.45,80.08-1.52,16.74-2.86,33.5-4.22,50.26-.73,9.02-1.56,18.05-1.93,27.09-.24,5.92-4.81,6.48-8.65,7.58-26.13,7.48-52.31,14.83-78.5,22.11-45.21,12.56-90.45,24.99-135.64,37.58-10.29,2.87-11.38,2.3-11.39-8.14-.04-27.01-.01-54.02-.01-81.03,0,0,.17-.7.17-.7,1.61-.17,3.28-.11,4.82-.54,56.56-15.63,113.09-31.38,169.69-46.86,5.77-1.58,6.32-5.14,6.74-10.02,5.94-68.95,11.93-137.9,18.1-206.84,6.8-76.05,13.73-152.09,20.8-228.12.61-6.54-.55-9.15-7.89-9.07-28.26.32-56.52-.12-84.78-.09-42.55.05-85.1.27-127.64.41-.12-.35-.14-.7-.06-1.06Z"/>
  <path class="cls-4" d="M498.92,846.59c-49.42-13.57-98.84-27.15-148.26-40.73-9.07-2.49-18.11-5.1-27.22-7.44-4.32-1.11-6.03-3.22-6.44-7.99-3.49-41.13-7.25-82.25-11.22-123.34-.66-6.8.17-9.86,8.26-9.67,24.04.56,48.11.45,72.15.05,6.99-.12,8.7,2.55,9.09,8.95,1.06,17.52,3.01,34.98,4.14,52.5.44,6.81,3.04,10.01,9.91,11.72,29.88,7.42,59.6,15.47,89.38,23.29.67.25,1.33.51,2,.76-.04,1.04-.08,2.08-.11,3.12-2.38,1.94-1.88,4.66-1.87,7.2.04,27.2.12,54.4.19,81.59Z"/>
  <path class="cls-2" d="M500.7,433.86c-48.05-.14-96.1-.3-144.15-.41-21.11-.05-42.22-.19-63.32.11-5.56.08-8.27-1.2-8.74-7.22-1.89-23.96-3.9-47.91-6.4-71.81-.81-7.75,1.36-9.9,9.21-9.88,67.22.18,134.44-.05,201.66-.2,3.88,0,7.75-.38,11.63-.58-.08.36-.06.72.06,1.06,0,0,0-.11,0-.11-2.26,2.78-1.79,6.1-1.8,9.3-.02,22.32-.04,44.65.03,66.97,0,2.8-.94,5.89,1.57,8.26.02,1.22.05,2.44.07,3.66l.18.87Z"/>
  <path class="cls-2" d="M498.7,613.44c-56.9-.11-113.8-.21-170.7-.33-8.13-.02-16.25-.14-24.38-.21-.66-.53-1.33-1.06-1.99-1.58-2.57-26.49-4.91-53.01-7.85-79.47-.92-8.26,3.47-7.93,9.16-7.92,62.01.1,124.03.07,186.04.04,3.88,0,7.76-.36,11.64-.55.09.46.05.91-.14,1.35.01.93.02,1.86.03,2.79-2.06,1.69-1.71,4.05-1.71,6.28-.01,23-.01,46.01,0,69.01,0,2.23-.35,4.6,1.71,6.28.06,1.19.13,2.38.19,3.56l-2,.75Z"/>
  <path class="cls-1" d="M498.7,613.44c.67-.25,1.33-.5,2-.75,32.76.14,65.52.45,98.28.28,6.78-.04,9.88.83,9.05,8.85-3.38,32.6-6.34,65.25-8.95,97.92-.53,6.64-2.93,9.25-9.27,10.89-29.78,7.71-59.41,15.98-89.09,24.05-.67-.25-1.33-.51-2-.76,0-46.82-.01-93.65-.02-140.47Z"/>
  <path class="cls-5" d="M500.62,523.42c.03-29.85.06-59.71.09-89.56,0,0-.18-.87-.18-.87,38.29.15,76.57.47,114.86.29,6.78-.03,9.11,1.54,8.33,8.59-2.14,19.35-3.59,38.79-5.52,58.16-2.4,23.98-2.49,23.79-26.28,24.02-30.48.29-60.96-1.01-91.43.72.19-.44.23-.88.14-1.35Z"/>
  <path class="cls-3" d="M498.92,846.59c-.07-27.2-.14-54.4-.19-81.59,0-2.54-.5-5.26,1.87-7.2.07,29.41.14,58.82.21,88.23,0,0-.17.7-.17.7,0,0-.89.27-.89.27l-.83-.41Z"/>
  <path class="cls-7" d="M301.63,611.32c.66.53,1.33,1.06,1.99,1.58-1.28.25-1.98-.23-1.99-1.58Z"/>
  <path class="cls-6" d="M500.81,846.03c-.07-29.41-.14-58.82-.21-88.23.04-1.04.08-2.08.11-3.12,29.68-8.07,59.31-16.34,89.09-24.05,6.34-1.64,8.74-4.25,9.27-10.89,2.61-32.67,5.57-65.32,8.95-97.92.83-8.01-2.27-8.88-9.05-8.85-32.76.17-65.52-.14-98.28-.28-.06-1.19-.13-2.38-.19-3.56,0-27.19,0-54.39,0-81.58-.01-.93-.02-1.86-.03-2.79,30.46-1.73,60.95-.43,91.43-.72,23.79-.23,23.88-.04,26.28-24.02,1.94-19.38,3.38-38.81,5.52-58.16.78-7.05-1.55-8.62-8.33-8.59-38.28.17-76.57-.14-114.86-.29-.02-1.22-.05-2.44-.07-3.65.07-28.17.13-56.35.19-84.53,0,0,0,.11,0,.11,42.55-.14,85.09-.36,127.64-.41,28.26-.04,56.53.4,84.78.09,7.34-.08,8.5,2.53,7.89,9.07-7.07,76.03-14,152.07-20.8,228.12-6.17,68.93-12.16,137.88-18.1,206.84-.42,4.88-.97,8.44-6.74,10.02-56.6,15.49-113.13,31.23-169.69,46.86-1.54.43-3.21.37-4.82.54Z"/>
  <path class="cls-10" d="M500.65,344.8c-.06,28.18-.13,56.36-.19,84.53-2.51-2.37-1.56-5.46-1.57-8.26-.07-22.32-.05-44.65-.03-66.97,0-3.2-.46-6.52,1.8-9.3Z"/>
  <path class="cls-7" d="M500.51,527.56c0,27.19,0,54.39,0,81.58-2.06-1.69-1.71-4.05-1.71-6.29-.01-23-.01-46.01,0-69.01,0-2.23-.35-4.6,1.71-6.28Z"/>
</svg>