<?xml version="1.0" encoding="UTF-8"?>
<svg id="Layer_1" data-name="Layer 1" xmlns="http://www.w3.org/2000/svg" viewBox="0 0 1000 1000">
  <defs>
    <style>
      .cls-1 {
        fill: #fefdfd;
      }

      .cls-1, .cls-2, .cls-3, .cls-4, .cls-5, .cls-6, .cls-7, .cls-8 {
        stroke-width: 0px;
      }

      .cls-2 {
        fill: #f0652a;
      }

      .cls-3 {
        fill: #e34d26;
      }

      .cls-4 {
        fill: #f06529;
      }

      .cls-5 {
        fill: #eae7e6;
      }

      .cls-6 {
        fill: #eae9e9;
      }

      .cls-7 {
        fill: #fff;
      }

      .cls-8 {
        fill: #fefefe;
      }
    </style>
  </defs>
  <path class="cls-7" d="M657.83.39c.15,43.26.25,86.52.5,129.78.02,3.71-.97,5.15-4.89,5.08-11.71-.21-23.43-.29-35.14.02-5.87.16-4.99-3.53-4.99-7.05,0-15.62,0-31.24,0-46.85v-9.42c-.56-.18-1.12-.37-1.68-.55-9.62,14.75-19.25,29.5-29.52,45.24-10.23-15.57-20.07-30.57-31.59-48.09,0,21-.54,39.05.24,57.05.37,8.53-2.43,10.39-10.23,9.75-8.73-.71-17.6-.67-26.33,0-6.84.53-7.93-2.2-7.9-8.24.23-39.69.14-79.39.08-119.08,0-2.54-.59-5.08-.9-7.62,16.28,0,32.55,0,48.83,0,8.29,16.17,18.35,31.24,28.36,47.4,9.82-16.47,19.05-31.93,28.28-47.4,15.63,0,31.25,0,46.88,0Z"/>
  <path class="cls-7" d="M343.36.39c-.21,37.72-.46,75.44-.61,113.16-.09,21.63-.02,21.67-21.6,21.61-7.47-.02-17.47,2.59-21.74-1.18-5.03-4.45-1.49-14.69-1.57-22.4-.24-21.32-.08-21.32-21.8-21.32-19.24,0-19.09,0-19.31,18.92-.1,8.37,3.63,19.3-1.51,24.43-5.13,5.12-16.05,1.42-24.41,1.51-19.63.21-19.57.07-19.65-19.61-.16-38.37-.4-76.74-.61-115.11h44.92c.2,12.31.66,24.62.49,36.92-.08,5.56.87,8.35,7.37,7.93,9.05-.58,18.2-.58,27.25,0,6.5.41,7.44-2.37,7.37-7.93-.17-12.3.29-24.62.49-36.92h44.92Z"/>
  <path class="cls-7" d="M485.95.39c.21,13.31.24,26.64.74,39.94.18,4.88-2.26,5.1-5.94,5.03-8.46-.16-16.96.4-25.38-.19-6.62-.47-8.82,1.17-8.68,8.29.49,24.73,0,49.48.32,74.21.07,5.75-.97,8.05-7.33,7.65-9.73-.62-19.55-.61-29.28,0-6.69.41-8.77-1.3-8.63-8.35.48-24.73,0-49.48.33-74.21.08-5.84-1.1-8.04-7.39-7.6-8.75.61-17.58-.1-26.35.25-4.72.19-6.14-1.3-5.99-6,.42-13,.38-26.01.52-39.02,41.02,0,82.03,0,123.05,0Z"/>
  <path class="cls-7" d="M726.19.39c-.14,28.26-.13,56.53-.53,84.79-.08,5.59,2.81,5.35,6.65,5.33,16.58-.09,33.16.16,49.73-.15,5.37-.1,7.45,1.25,7.21,6.96-.43,10.38-.33,20.8-.03,31.19.13,4.71-.66,6.83-6.19,6.78-32.17-.27-64.35-.18-96.53-.07-3.89.01-5.79-.55-5.76-5.2.31-43.21.39-86.43.53-129.64h44.92Z"/>
  <path class="cls-3" d="M853.18,205.99c-5.74,63.64-11.36,125.5-16.89,187.36-4.84,54.09-9.55,108.2-14.38,162.29-5.6,62.84-11.29,125.67-16.89,188.5-4.82,54.09-9.86,108.17-14.11,162.31-.77,9.77-3.26,14.41-13.4,17.17-89.92,24.43-179.66,49.55-269.48,74.39-4.9,1.36-9.59,2.36-15.14.81-91.3-25.58-182.66-50.93-274.11-75.94-7.35-2.01-9.57-5.22-10.19-12.48-6.79-79.06-13.99-158.08-20.99-237.11-6.14-69.32-12.1-138.66-18.27-207.98-6.81-76.44-13.79-152.87-20.68-229.3-.9-10.04-1.43-20.13-2.65-30.13-.8-6.52.66-10.06,7.98-8.86.95.16,1.95.02,2.93.02,228.45,0,456.91.02,685.36-.08,7.79,0,14.55-.17,10.91,9.02ZM499.7,753.96c-31.39-8.2-62.75-16.56-94.21-24.46-5.29-1.33-5.32-4.4-5.67-8.45-1.64-19.12-3.55-38.21-5.22-57.33-.34-3.87-.61-6.77-5.87-6.73-25.71.21-51.43.16-77.15.03-4.78-.02-6.28,1.82-5.8,6.44.98,9.38,1.58,18.8,2.4,28.19,2.8,32.08,5.68,64.15,8.37,96.23.48,5.7,2.12,9.15,8.44,10.88,58.29,15.92,116.47,32.21,174.68,48.39-.02,27,.19,54-.2,81-.12,8.48,1.62,10.67,10.55,8.1,47.27-13.61,94.75-26.52,142.14-39.73,24.32-6.78,48.61-13.63,72.89-20.55,3.89-1.11,8.43-1.43,8.96-7.25,2.5-27.33,5.29-54.63,7.75-81.97,1.59-17.7,2.35-35.49,4.28-53.16,3.02-27.61,5.57-55.25,7.53-82.96,1.14-16.11,2.67-32.2,4.16-48.29,2.44-26.36,5.09-52.69,7.48-79.06,1.58-17.38,2.72-34.8,4.31-52.18,2.36-25.71,5.06-51.4,7.4-77.11,1.64-18.02,2.74-36.1,4.41-54.12,2.29-24.74,4.81-49.47,7.39-74.18.73-7.03-1.45-9.64-9.05-9.62-90.43.25-180.87.22-271.3.03-6.81-.01-8.99,2-8.9,8.86.35,26.34.15,52.7.16,79.05-3.89.17-7.78.49-11.67.5-67.34.03-134.68.14-202.02-.14-7.47-.03-9.54,1.81-8.56,9.31,1.86,14.17,2.72,28.47,4.03,42.71,6.27,68.29,12.87,136.56,18.48,204.91.85,10.35,4.24,11.92,13.36,11.86,58.23-.37,116.46-.2,174.7-.16,3.88,0,7.76.4,11.65.62.03,46.77.07,93.55.1,140.32Z"/>
  <path class="cls-4" d="M499.64,344.04c0-26.35.19-52.7-.16-79.05-.09-6.86,2.09-8.88,8.9-8.86,90.43.19,180.87.22,271.3-.03,7.6-.02,9.78,2.59,9.05,9.62-2.58,24.72-5.1,49.44-7.39,74.18-1.67,18.02-2.77,36.1-4.41,54.12-2.34,25.72-5.04,51.4-7.4,77.11-1.59,17.38-2.74,34.8-4.31,52.18-2.39,26.36-5.04,52.7-7.48,79.06-1.49,16.09-3.02,32.17-4.16,48.29-1.96,27.71-4.52,55.35-7.53,82.96-1.93,17.66-2.68,35.45-4.28,53.16-2.46,27.33-5.26,54.64-7.75,81.97-.53,5.82-5.07,6.14-8.96,7.25-24.28,6.92-48.57,13.77-72.89,20.55-47.39,13.21-94.86,26.12-142.14,39.73-8.92,2.57-10.67.37-10.55-8.1.39-26.99.18-54,.2-81,.07-.35.05-.7-.05-1.04,2.22-.4,4.49-.62,6.65-1.22,50.37-13.91,100.73-27.84,151.08-41.82,24.44-6.78,23.88-6.87,25.97-32.38,3.93-47.94,8.56-95.81,12.87-143.72,2.83-31.4,5.47-62.82,8.5-94.2.65-6.69-.96-9.46-8.14-8.85-7.11.6-14.3.12-21.46.13-58.54.13-117.08.26-175.61.39l.18-.87c-.01-29.83-.03-59.66-.04-89.49-.02-.35-.08-.69-.16-1.02,69.23.15,138.47.26,207.7.55,5.32.02,6.58-2.44,6.96-6.99,2.01-23.95,3.9-47.92,6.47-71.82.88-8.12-1.13-10.51-9.54-10.43-42.58.42-85.17.14-127.76.21-27.95.05-55.89.29-83.84.45.1-.33.15-.67.15-1.02Z"/>
  <path class="cls-5" d="M499.59,613.64c-3.88-.21-7.76-.61-11.65-.62-58.23-.04-116.47-.21-174.7.16-9.12.06-12.51-1.51-13.36-11.86-5.6-68.35-12.21-136.62-18.48-204.91-1.31-14.24-2.17-28.54-4.03-42.71-.98-7.5,1.09-9.35,8.56-9.31,67.34.28,134.68.17,202.02.14,3.89,0,7.78-.32,11.67-.5,0,.35-.06.69-.16,1.02,0,29.34,0,58.68,0,88.02.09.34.14.68.16,1.02-39.65-.17-79.31-.25-118.96-.61-5.64-.05-6.41,2.4-5.96,7.07,2.53,25.87,5.05,51.74,7.26,77.63.4,4.64,2.05,5.97,6.53,5.93,37.05-.29,74.11-.38,111.17-.53,0,0-.18.87-.18.87-.02,29.29-.03,58.58-.05,87.87.16.43.21.86.14,1.31Z"/>
  <path class="cls-6" d="M499.68,847.16c-58.21-16.18-116.4-32.47-174.68-48.39-6.33-1.73-7.97-5.18-8.44-10.88-2.69-32.09-5.58-64.16-8.37-96.23-.82-9.4-1.42-18.81-2.4-28.19-.48-4.62,1.02-6.47,5.8-6.44,25.72.13,51.43.17,77.15-.03,5.26-.04,5.53,2.86,5.87,6.73,1.67,19.11,3.58,38.21,5.22,57.33.35,4.06.38,7.13,5.67,8.45,31.47,7.9,62.82,16.26,94.21,24.46,0,0-.17.74-.17.74.03,30.47.07,60.95.1,91.42.1.34.11.69.05,1.04Z"/>
  <path class="cls-2" d="M499.7,753.96c-.03-46.77-.07-93.55-.1-140.32.07-.45.02-.89-.14-1.31,3.54.26,7.09.73,10.64.74,29.94.06,59.87.18,89.8-.08,6.49-.06,8.85.82,8.04,8.52-3.44,32.65-6.21,65.38-8.62,98.13-.51,6.9-3.22,9.45-9.41,11.06-30.18,7.81-60.26,15.98-90.38,24.02l.17-.74Z"/>
  <path class="cls-1" d="M499.53,754.71c30.12-8.04,60.2-16.21,90.38-24.02,6.19-1.6,8.9-4.16,9.41-11.06,2.4-32.75,5.17-65.48,8.62-98.13.81-7.7-1.55-8.57-8.04-8.52-29.93.25-59.87.14-89.8.08-3.55,0-7.09-.48-10.64-.74.02-29.29.03-58.58.05-87.87,58.54-.13,117.08-.27,175.61-.39,7.16-.02,14.35.46,21.46-.13,7.18-.6,8.78,2.17,8.14,8.85-3.03,31.38-5.67,62.8-8.5,94.2-4.31,47.9-8.95,95.78-12.87,143.72-2.09,25.51-1.54,25.6-25.97,32.38-50.35,13.97-100.71,27.91-151.08,41.82-2.16.6-4.43.82-6.65,1.22-.03-30.47-.07-60.95-.1-91.42Z"/>
  <path class="cls-8" d="M499.49,433.08c0-29.34,0-58.68,0-88.02,27.95-.16,55.89-.4,83.84-.45,42.59-.08,85.18.21,127.76-.21,8.41-.08,10.41,2.3,9.54,10.43-2.57,23.9-4.46,47.87-6.47,71.82-.38,4.55-1.65,7.01-6.96,6.99-69.23-.29-138.47-.4-207.7-.55Z"/>
  <path class="cls-3" d="M499.69,523.59c-37.06.15-74.11.24-111.17.53-4.48.03-6.13-1.3-6.53-5.93-2.22-25.89-4.73-51.76-7.26-77.63-.46-4.67.32-7.12,5.96-7.07,39.65.36,79.31.44,118.96.61.01,29.83.03,59.66.04,89.49Z"/>
</svg>