<?xml version="1.0" encoding="UTF-8"?>
<svg id="Layer_1" data-name="Layer 1" xmlns="http://www.w3.org/2000/svg" viewBox="0 0 1000 1000">
  <defs>
    <style>
      .cls-1 {
        fill: #f0be26;
      }

      .cls-1, .cls-2, .cls-3, .cls-4, .cls-5, .cls-6 {
        stroke-width: 0px;
      }

      .cls-2 {
        fill: #e4a127;
      }

      .cls-3 {
        fill: #e4a126;
      }

      .cls-4 {
        fill: #fff;
      }

      .cls-5 {
        fill: #eaecec;
      }

      .cls-6 {
        fill: #fffffe;
      }
    </style>
  </defs>
  <path class="cls-3" d="M499.85,197.98c114.74,0,229.48-.01,344.22.03,7.41,0,7.91-1.83,7.17,7.85-1.79,23.25-4.01,46.47-6.01,69.71-1.35,15.68-2.56,31.37-3.95,47.05-1.72,19.45-3.61,38.88-5.35,58.33-1.3,14.54-2.44,29.1-3.71,43.64-1.36,15.68-2.81,31.36-4.18,47.04-1.31,14.92-2.52,29.85-3.86,44.77-1.35,15.1-2.84,30.19-4.21,45.29-.87,9.63-1.63,19.27-2.48,28.9-1.72,19.65-3.47,39.29-5.21,58.94-1.34,15.11-2.68,30.23-4.05,45.34-1.75,19.26-3.54,38.51-5.29,57.77-.87,9.63-1.66,19.27-2.53,28.9-1.84,20.4-3.7,40.79-5.56,61.18-1.6,17.57-3.22,35.13-4.83,52.69-.45,4.91-1.1,9.81-1.27,14.74-.13,3.56-1.82,5.54-4.88,6.9-6.43,2.86-13.12,4.97-19.83,7-47.9,14.47-96.22,27.48-144.44,40.78-37.81,10.43-75.76,20.39-113.61,30.69-5.68,1.54-10.95,1.43-16.69-.13-59.26-16.12-118.41-32.66-177.53-49.3-31.75-8.94-63.53-17.74-95.3-26.61-5-1.4-5.09-1.51-5.51-6.44-1.97-22.85-3.91-45.7-5.92-68.55-1.87-21.34-3.79-42.68-5.74-64.01-2.14-23.41-4.4-46.8-6.51-70.21-1.67-18.5-3.14-37.02-4.79-55.52-1.69-18.88-3.51-37.76-5.24-56.64-.88-9.63-1.68-19.27-2.54-28.9-1.46-16.43-2.97-32.86-4.41-49.29-1.64-18.69-3.19-37.4-4.85-56.09-1.31-14.73-2.77-29.45-4.09-44.19-1-11.14-1.84-22.3-2.83-33.45-1.35-15.29-2.82-30.57-4.16-45.87-1.4-16.06-2.66-32.12-4.06-48.18-2.01-23.04-4.14-46.08-6.12-69.12-.58-6.8-.98-13.62-1.2-20.44-.14-4.52.07-4.53,4.81-4.61,1.33-.02,2.66,0,3.99,0,114.17,0,228.34,0,342.51,0ZM498.11,750.4c-2.25-.29-4.57-.32-6.74-.89-28.75-7.64-57.47-15.38-86.22-23.01-2.77-.74-3.84-2.1-4.09-5.02-1.71-20.02-3.65-40.02-5.47-60.03-.48-5.26-.4-5.31-5.55-5.32-26.39-.02-52.79,0-79.18-.01-6.34,0-5.39.25-5.34,5.74.16,15.56,1.96,31,3.25,46.49,2.13,25.5,4.55,50.97,8.29,76.28,1.94,13.16-.36,10.29,11.93,13.84,38.76,11.22,77.59,22.2,116.48,32.99,17.52,4.86,34.96,10.09,52.7,14.13,2.3,2.18,2.32,4.97,2.31,7.88-.05,24.11-.03,48.21,0,72.32,0,2.26-.09,4.49.71,6.74.77,2.17,1.52,3.03,4.07,2.31,7.09-1.99,14.18-4.11,21.3-5.89,13.56-3.38,26.97-7.29,40.45-10.93,18.97-5.12,37.88-10.45,56.81-15.67,14.02-3.87,28.07-7.65,42.08-11.58,13.28-3.72,26.54-7.52,39.78-11.4,7.26-2.13,14.46-4.46,21.65-6.82,1.93-.63,4.38-1.29,4.35-3.86-.03-2.91,1.23-5.53,1.31-8.39.26-9.25,1.88-18.37,2.55-27.59.3-4.1.22-8.36,1.17-12.36,1.31-5.57,1.24-11.26,1.74-16.85.53-5.8,1.31-11.63,1.69-17.47.26-4.09.2-8.35,1.12-12.37,1.37-5.94,1.04-12.01,1.78-17.99.72-5.76,1.21-11.64,1.67-17.46.36-4.49.08-9.13,1.11-13.51,1.31-5.57,1.25-11.26,1.75-16.85.52-5.8,1.27-11.64,1.69-17.47.31-4.3,0-8.79,1.07-12.93,1.48-5.77,1.08-11.66,1.73-17.43.68-6.13,1.37-12.37,1.69-18.6.25-4.86.3-9.86,1.22-14.64,1.16-5.97,1.17-12.02,1.73-17.99.54-5.8,1.19-11.65,1.69-17.46.39-4.5.32-9.07,1.04-13.53,1.12-6.9,1.55-13.85,2.05-20.79.4-5.46.84-10.94,1.45-16.34.84-7.5.86-15.06,2.04-22.51.89-5.63.56-11.36,1.45-16.91.99-6.17,1.11-12.39,1.72-18.56.6-5.98.95-12.08,1.63-18.03,1.16-10.1,2.09-20.26,2.87-30.36.87-11.28,2.35-22.52,2.77-33.85.17-4.65.49-9.42,1.15-14.08,1-7.1,1.72-14.22,1.98-21.37.21-5.67.94-11.31,1.56-16.9.52-4.72.07-9.49,1.01-14.1,1.29-6.32,1.42-12.75,1.87-19.11.49-6.96,1.1-13.94,1.57-20.9.69-10.34,2.12-20.64,2.03-31.05-.07-8.39.68-7.72-7.62-7.72-90.2,0-180.4,0-270.6,0-1.14,0-2.28-.03-3.42,0-4.34.14-4.44.15-4.47,4.57-.07,9.49-.02,18.98-.02,28.47-9.68.06-19.35.17-29.03.18-42.33.05-84.66-.52-126.97,1-1.71.06-3.43.04-5.12.25-5.16.63-5.28.65-5.83,5.77-1.41,13.18-2.77,26.37-4.02,39.57-1.29,13.57-2.41,27.17-3.66,40.75-1.74,18.86-3.59,37.7-5.31,56.56-1.38,15.1-2.61,30.21-3.94,45.32-1.67,18.87-3.38,37.74-5.07,56.61-1.1,12.26-2.28,24.52-3.28,36.78-1.02,12.46-1.96,24.93-2.75,37.41-.28,4.42-.04,4.45,4.24,4.56,1.33.04,2.66.01,3.99.01,58.46,0,116.92,0,175.38.01,3.79,0,7.58.16,11.37.25-.6,31.36,1.16,62.74-.99,94.11-.98,14.29.91,28.71-1.33,42.99Z"/>
  <path class="cls-4" d="M560.67,99.67c.01-2.58-1.81-3.61-2.98-4.96-15.87-18.39-32.42-36.17-49.12-53.8-4.48-4.73-6.96-9.34-6.36-15.99.59-6.59.17-13.27.21-19.92,0-.35.23-.71.37-1.1,1.58-.83,3.31-.42,4.96-.42,37.41-.03,74.82-.02,112.23-.02.95,0,1.91.07,2.85-.01,2.17-.19,3.01.66,2.99,2.9-.09,9.87-.12,19.74.02,29.61.04,2.81-1.39,2.97-3.53,3.01-15.94.32-31.88.7-47.83,1.11-1.84.05-3.77-.38-5.66.58.61,2.19,2.44,3.37,3.81,4.85,17.27,18.66,34.55,37.32,51.94,55.88,2.47,2.64,3.75,5.28,3.58,9-.3,6.82-.09,13.66-.09,20.5,0,5.92.47,5.64-5.45,5.63-18.42,0-36.84,0-55.26,0-19.56,0-39.12,0-58.68,0h-5.43c-1.26-1.64-.9-3.21-.9-4.69-.03-9.11.09-18.22-.07-27.33-.05-3.01.96-3.86,3.92-3.86,15.57.01,31.14-.14,46.71-.32,2.57-.03,5.23.14,7.77-.65Z"/>
  <path class="cls-4" d="M481.03,70.09c0,20.31,0,40.62,0,60.94,0,5.42-.03,5.49-5.07,5.49-33.23.02-66.47.02-99.7,0-4.43,0-4.5-.07-4.51-4.26-.04-12.34-.04-24.68,0-37.02.01-3.91.09-3.98,4.12-3.99,18.42-.03,36.84,0,55.26-.02,4.26,0,4.67.94,4.66-4.56-.03-25.42,0-50.83,0-76.25,0-1.33.09-2.66-.01-3.98-.17-2.19.72-3.05,2.94-3,4.56.1,9.11.03,13.67.03,7.79,0,15.57,0,23.36,0,5.74,0,5.28-.44,5.29,5.12,0,20.5,0,41,0,61.5Z"/>
  <path class="cls-1" d="M500.45,288.27c0-9.49-.04-18.98.02-28.47.03-4.42.13-4.43,4.47-4.57,1.14-.04,2.28,0,3.42,0,90.2,0,180.4,0,270.6,0,8.3,0,7.55-.67,7.62,7.72.09,10.41-1.34,20.7-2.03,31.05-.47,6.96-1.08,13.94-1.57,20.9-.45,6.36-.58,12.79-1.87,19.11-.94,4.61-.49,9.39-1.01,14.1-.62,5.59-1.35,11.23-1.56,16.9-.26,7.15-.98,14.27-1.98,21.37-.66,4.66-.98,9.43-1.15,14.08-.42,11.34-1.9,22.57-2.77,33.85-.78,10.1-1.71,20.26-2.87,30.36-.68,5.94-1.04,12.05-1.63,18.03-.62,6.17-.73,12.39-1.72,18.56-.89,5.55-.56,11.28-1.45,16.91-1.18,7.44-1.2,15.01-2.04,22.51-.6,5.41-1.05,10.89-1.45,16.34-.5,6.95-.93,13.9-2.05,20.79-.72,4.46-.65,9.03-1.04,13.53-.5,5.81-1.15,11.66-1.69,17.46-.56,5.97-.57,12.02-1.73,17.99-.93,4.77-.97,9.78-1.22,14.64-.32,6.23-1,12.47-1.69,18.6-.64,5.78-.25,11.67-1.73,17.43-1.06,4.14-.76,8.63-1.07,12.93-.42,5.83-1.17,11.66-1.69,17.47-.5,5.59-.44,11.28-1.75,16.85-1.03,4.38-.75,9.02-1.11,13.51-.47,5.82-.95,11.7-1.67,17.46-.75,5.98-.41,12.05-1.78,17.99-.93,4.01-.86,8.28-1.12,12.37-.38,5.84-1.16,11.67-1.69,17.47-.51,5.59-.43,11.28-1.74,16.85-.94,4.01-.87,8.27-1.17,12.36-.67,9.22-2.29,18.35-2.55,27.59-.08,2.85-1.34,5.48-1.31,8.39.02,2.57-2.42,3.23-4.35,3.86-7.19,2.36-14.39,4.69-21.65,6.82-13.23,3.88-26.5,7.68-39.78,11.4-14.01,3.93-28.05,7.71-42.08,11.58-18.94,5.22-37.85,10.55-56.81,15.67-13.48,3.64-26.89,7.55-40.45,10.93-7.13,1.78-14.21,3.9-21.3,5.89-2.55.72-3.3-.15-4.07-2.31-.8-2.25-.71-4.48-.71-6.74-.02-24.11-.04-48.21,0-72.32,0-2.91-.01-5.7-2.31-7.88,1.97-.67,3.95-1.33,5.92-2,0,0-.05-.12-.05-.12,1.62-.07,3.31.11,4.59-1.25l-.04.09c1.62-.1,3.32.14,4.6-1.23l-.04.08c1.61-.14,3.32.12,4.59-1.26l-.06.08c4.38-.52,8.74-1.09,12.63-3.42l-.04.08c1.6-.16,3.32.12,4.57-1.27l-.05.08c4.43-.31,8.65-1.42,12.59-3.48l-.04.08c3.29-.13,6.44-.78,9.32-2.46l.41.05.37-.19c.98.12,1.9.08,2.52-.85l-.05.06c2.99-.15,5.9-.61,8.42-2.41l.26.13.22-.18c1.32,0,2.7.17,3.67-1.06l-.05.07c2.99-.15,5.86-.67,8.4-2.39l.27.14.25-.18c1.33.02,2.69.1,3.65-1.1l-.06.07c2.87-.14,5.67-.51,8.07-2.28l-.03.08c1.6-.16,3.31.08,4.54-1.33l-.07.07c1.3.02,2.62.07,3.53-1.13l-.07.07c1.69-.07,3.43.04,4.78-1.3,1.49-.26,3.01-.39,4.45-.8,10.57-3.01,21.14-5.98,31.66-9.14,11.43-3.44,22.79-7.12,34.22-10.57,2.9-.88,4.52-2.31,4.6-5.53.07-2.83.7-5.64.98-8.47,1.64-16.79,3.29-33.58,4.86-50.38,1.88-20,3.7-40.01,5.52-60.02.89-9.82,1.69-19.64,2.59-29.45,1.33-14.53,2.72-29.06,4.08-43.59,1.4-14.91,2.76-29.82,4.19-44.73.78-8.11,1.58-16.22,2.51-24.32.27-2.34-.37-3.65-2.77-3.97-1.5-.2-2.98-.65-4.48-.71-6.63-.26-13.26-.41-19.89-.61-.3-.31-.63-.33-.98-.08-1.93-.44-3.86-.37-5.8-.09-.34-.26-.7-.28-1.07-.06-.79-.01-1.59-.02-2.38-.04-1.69-.11-3.39-.32-5.08-.32-52.45-.05-104.9-.08-157.35-.1-1.7,0-3.4.16-5.09.24l.09-.38c0-45.96,0-91.93,0-137.89,17.24.05,34.46.35,51.69,1.06,15.32.63,30.63,1.39,45.9,2.73,6.8.6,7.39,1.02,8.07,6.95,1.72,15.02,3.39,30.06,4.83,45.11,1.08,11.29,2.49,22.57,2.63,33.94.03,2.07.6,3.78,3.12,3.89l.3.2.36-.02c1.1.98,2.48.83,3.79.88,26.75,1.02,53.5.77,80.26.72,4.17,0,4.31-.32,3.9-4.82-1.5-16.41-3.03-32.82-4.55-49.23-1.77-19.05-3.6-38.1-5.3-57.15-1.73-19.43-3.31-38.88-5.01-58.32-.54-6.23-1.36-12.43-1.84-18.66-.17-2.25-1.14-2.98-3.2-2.86-.95.05-1.9-.02-2.85-.02-47.44-.19-94.89.13-142.33-.68-13.28-.23-26.56-.26-39.84-.38Z"/>
  <path class="cls-5" d="M500.45,288.27c13.28.12,26.56.16,39.84.38,47.44.81,94.88.48,142.33.68.95,0,1.9.08,2.85.02,2.05-.12,3.02.6,3.2,2.86.48,6.23,1.3,12.43,1.84,18.66,1.7,19.44,3.27,38.88,5.01,58.32,1.7,19.06,3.53,38.1,5.3,57.15,1.52,16.41,3.05,32.82,4.55,49.23.41,4.5.26,4.82-3.9,4.82-26.75.05-53.51.29-80.26-.72-1.31-.05-2.68.1-3.78-.88,2.28-.09,4.55-.25,6.82-.26,24.13-.02,48.25-.01,72.38-.01,1.33,0,2.66.01,3.99-.02,2.25-.05,3.47-.68,3-3.45-.51-2.96-1.15-6.05-1.13-8.95.03-5.91-1.25-11.65-1.51-17.51-.22-4.88-.6-9.83-1.38-14.64-1-6.17-1.24-12.4-1.7-18.56-.44-6.02-1.22-12.04-1.69-18.05-.34-4.3-.5-8.66-.94-12.97-1.09-10.49-2.59-20.96-3.13-31.48-.34-6.61-1.27-13.16-1.59-19.77-.22-4.47-.17-9.12-1.08-13.51-1.39-6.71-.87-13.53-1.89-20.27-.87-5.71-1.23-7.44-6.86-7.46-6.47-.03-12.79-1.36-19.23-1.35-51.29.04-102.58.02-153.87.02-1.33,0-2.66.04-3.99.01-2.1-.04-3.18.9-3.14,3.06.02,1.14-.02,2.28-.02,3.42,0,26.39,0,52.79,0,79.18,0,1.33.02,2.66.05,3.99.04,1.57.82,2.47,2.41,2.56.95.05,1.9.11,2.85.07,15.18-.64,30.27,1.89,45.45,1.17.57-.03,1.16-.07,1.71.05,10.05,2.35,20.36.5,30.55,1.94,6.08.86,12.35,1.84,18.63,1.52,1.26-.06,2.54.78,3.84.93,2.19.24,2.67,1.49,2.82,3.46.99,12.78,2.11,25.55,3.23,38.32,1.05,12.02,2.02,24.04,3.38,36.03.47,4.1,1.77,8.16,1.36,12.36-2.52-.11-3.09-1.82-3.12-3.89-.14-11.37-1.55-22.65-2.63-33.94-1.44-15.05-3.1-30.09-4.83-45.11-.68-5.93-1.26-6.35-8.07-6.95-15.27-1.35-30.58-2.1-45.9-2.73-17.23-.71-34.45-1.01-51.69-1.06-1.96-1.78-4.34-1.02-6.53-.97-17.07.39-34.14.83-51.21,1.33-7.39.22-14.77.7-22.16.87-2.74.06-4.17.89-4.45,3.82-1.1,11.69-2.38,23.36-3.51,35.05-1.31,13.57-2.48,27.16-3.77,40.74-1.71,17.9-3.45,35.8-5.23,53.69-.27,2.72.73,3.89,3.49,3.63,1.32-.13,2.66-.02,3.98-.02,26.57,0,53.15,0,79.72.01,2.08,0,4.16.15,6.25.23,0,27.11-.02,54.21-.03,81.32,0,.57-.02,1.14,0,1.71.16,4.12.22,4.2,4.1,4.37,1.32.06,2.65.01,3.98.01,32.05,0,64.1,0,96.15,0,1.33,0,2.66-.06,3.98.02,3.15.2,3.56.83,3.19,3.82-1.08,8.58-2.57,17.14-2.97,25.76-.31,6.6-1.2,13.15-1.59,19.74-.3,5.05-.04,10.28-1.16,15.18-1.32,5.78-1.05,11.64-1.69,17.41-.82,7.48-2.04,14.92-2.91,22.4-.32,2.73.43,6.17-2.13,8.51.17-2.45.21-4.92.53-7.35,2.47-18.95,3.75-38.02,5.52-57.04,1.23-13.18,2.05-26.4,4.14-39.49,1.04-6.51.96-6.6-5.74-6.6-31.65,0-63.29,0-94.94,0-1.7,0-3.4.15-5.1.23-3.79-.09-7.58-.25-11.37-.25-58.46-.02-116.92-.01-175.38-.01-1.33,0-2.66.02-3.99-.01-4.28-.12-4.52-.14-4.24-4.56.8-12.48,1.73-24.95,2.75-37.41,1.01-12.27,2.18-24.52,3.28-36.78,1.69-18.87,3.41-37.74,5.07-56.61,1.34-15.1,2.57-30.22,3.94-45.32,1.72-18.86,3.57-37.71,5.31-56.56,1.26-13.58,2.37-27.17,3.66-40.75,1.26-13.2,2.61-26.39,4.02-39.57.55-5.12.67-5.14,5.83-5.77,1.69-.21,3.41-.19,5.12-.25,42.31-1.52,84.64-.95,126.97-1,9.68-.01,19.35-.12,29.03-.18Z"/>
  <path class="cls-5" d="M504.09,843.59c-1.97.67-3.95,1.33-5.92,2-17.75-4.04-35.18-9.27-52.7-14.13-38.88-10.79-77.72-21.78-116.48-32.99-12.29-3.56-9.99-.68-11.93-13.84-3.74-25.31-6.16-50.78-8.29-76.28-1.29-15.49-3.09-30.93-3.25-46.49-.06-5.49-1-5.74,5.34-5.74,26.39.01,52.79,0,79.18.01,5.15,0,5.07.06,5.55,5.32,1.82,20.01,3.76,40.01,5.47,60.03.25,2.93,1.32,4.29,4.09,5.02,28.75,7.63,57.47,15.38,86.22,23.01,2.17.58,4.49.61,6.74.89,1.12.48,2.21.13,3.32-.12,20.62-4.56,40.99-10.07,61.35-15.65,9.25-2.53,18.5-5.08,27.75-7.62-.56,1.05-1.38,1.76-2.55,2.11-6.34,1.9-12.63,3.95-19,5.71-10.18,2.8-20.43,5.38-30.63,8.11-12.58,3.37-25.12,6.89-37.73,10.12-2.53.65-3.56,1.79-3.55,4.23.02,3.23.09,6.45-.02,9.68-.75,22.55,1.16,45.06,1.17,67.6,0,1.3.41,2.6.5,3.91.23,3.37,1.98,5.1,5.38,5.1Z"/>
  <path class="cls-1" d="M590.53,727.02c-9.25,2.54-18.5,5.08-27.75,7.62-20.36,5.57-40.73,11.09-61.35,15.65-1.11.25-2.19.6-3.32.12,2.24-14.28.35-28.7,1.33-42.99,2.15-31.36.39-62.74.99-94.11,1.7-.08,3.4-.23,5.1-.23,31.65-.01,63.29-.01,94.94,0,6.7,0,6.78.1,5.74,6.6-2.09,13.09-2.91,26.31-4.14,39.49-1.77,19.02-3.05,38.09-5.52,57.04-.32,2.43-.36,4.9-.53,7.35-.17.18-.17.35,0,.53-.46.52-.92,1.04-1.39,1.56-1.5.07-2.86.58-4.11,1.39Z"/>
  <path class="cls-6" d="M596.03,724.07c-.17-.18-.17-.35,0-.53,2.56-2.33,1.81-5.78,2.13-8.51.87-7.47,2.09-14.92,2.91-22.4.63-5.77.37-11.64,1.69-17.41,1.12-4.9.87-10.14,1.16-15.18.39-6.59,1.28-13.14,1.59-19.74.4-8.61,1.89-17.18,2.97-25.76.38-2.99-.04-3.62-3.19-3.82-1.32-.08-2.65-.02-3.98-.02-32.05,0-64.1,0-96.15,0-1.33,0-2.66.05-3.98-.01-3.89-.17-3.95-.25-4.1-4.37-.02-.57,0-1.14,0-1.71,0-27.11.02-54.21.03-81.32,1.14-.16,2.29-.32,3.43-.49,0,0-.09.38-.09.38,1.64,1.41,3.62.88,5.47.88,52.18.03,104.36.04,156.53.02,1.85,0,3.81.52,5.52-.72.79.01,1.59.02,2.38.04.33.43.69.46,1.07.06,1.94-.28,3.87-.36,5.8.09.3.34.63.37.98.08,6.63.19,13.26.35,19.89.61,1.5.06,2.98.51,4.48.71,2.4.32,3.04,1.63,2.77,3.97-.93,8.1-1.74,16.21-2.51,24.32-1.42,14.91-2.79,29.82-4.19,44.73-1.36,14.53-2.75,29.05-4.08,43.59-.9,9.81-1.69,19.64-2.59,29.45-1.82,20.01-3.64,40.01-5.52,60.02-1.58,16.8-3.22,33.59-4.86,50.38-.28,2.83-.91,5.64-.98,8.47-.08,3.22-1.7,4.66-4.6,5.53-11.43,3.45-22.79,7.13-34.22,10.57-10.52,3.16-21.1,6.13-31.66,9.14-1.44.41-2.96.54-4.45.8-1.7.06-3.67-.89-4.78,1.3,0,0,.07-.07.07-.07-1.36-.21-2.77-.54-3.53,1.14,0,0,.07-.07.07-.07-1.63.05-3.56-.93-4.54,1.33,0,0,.03-.08.03-.08-3.09-.66-5.77.15-8.07,2.29,0,0,.06-.07.06-.07-1.4-.24-2.78-.42-3.65,1.1l-.25.18s-.27-.14-.27-.14c-3.15-.42-6.09-.13-8.4,2.39,0,0,.05-.07.05-.07-1.41-.28-2.78-.46-3.67,1.06l-.22.18s-.26-.13-.26-.13c-3.16-.42-6.12-.18-8.42,2.41,0,0,.05-.06.05-.06-1.04-.3-1.92-.14-2.52.85l-.37.19s-.41-.05-.41-.05c-3.4-.28-6.73-.31-9.31,2.46,0,0,.04-.08.04-.09-4.73-.74-8.82.78-12.59,3.48,0,0,.05-.08.05-.08-1.65-.03-3.56-1-4.57,1.28,0,0,.04-.08.03-.08-4.54-.09-8.91.49-12.63,3.42,0,0,.06-.08.06-.08-1.65-.03-3.55-.94-4.59,1.26,0,0,.04-.08.04-.08-1.66-.08-3.55-.98-4.6,1.23,0,0,.04-.09.04-.09-1.66-.07-3.56-1.01-4.58,1.25,0,0,.05.12.05.12-3.4,0-5.14-1.73-5.38-5.1-.09-1.31-.5-2.61-.5-3.91-.01-22.54-1.92-45.04-1.17-67.6.11-3.22.04-6.45.02-9.68-.01-2.44,1.02-3.58,3.55-4.23,12.61-3.24,25.15-6.76,37.73-10.12,10.2-2.73,20.45-5.3,30.63-8.11,6.38-1.75,12.67-3.81,19-5.71,1.16-.35,1.99-1.06,2.55-2.11,1.25-.81,2.61-1.31,4.11-1.39.88-.16,1.32-.69,1.38-1.56Z"/>
  <path class="cls-4" d="M616.75,478.6c.41-4.21-.89-8.26-1.36-12.36-1.36-12-2.33-24.01-3.38-36.03-1.11-12.77-2.23-25.54-3.23-38.32-.15-1.98-.63-3.22-2.82-3.46-1.3-.14-2.58-.99-3.84-.93-6.28.32-12.55-.66-18.63-1.52-10.18-1.44-20.49.41-30.55-1.94-.54-.13-1.14-.08-1.71-.05-15.18.72-30.28-1.81-45.45-1.17-.95.04-1.9-.01-2.85-.07-1.6-.09-2.38-.99-2.41-2.56-.03-1.33-.05-2.66-.05-3.99,0-26.39,0-52.79,0-79.18,0-1.14.04-2.28.02-3.42-.04-2.15,1.04-3.1,3.14-3.06,1.33.03,2.66-.01,3.99-.01,51.29,0,102.58.02,153.87-.02,6.45,0,12.76,1.32,19.23,1.35,5.63.02,5.99,1.75,6.86,7.46,1.03,6.74.51,13.56,1.89,20.27.91,4.39.86,9.04,1.08,13.51.32,6.61,1.25,13.17,1.59,19.77.54,10.52,2.04,20.99,3.13,31.48.45,4.31.61,8.67.94,12.97.47,6.01,1.25,12.03,1.69,18.05.46,6.16.7,12.39,1.7,18.56.78,4.81,1.16,9.76,1.38,14.64.26,5.86,1.54,11.6,1.51,17.51-.01,2.89.62,5.99,1.13,8.95.48,2.78-.75,3.4-3,3.45-1.33.03-2.66.02-3.99.02-24.13,0-48.25,0-72.38.01-2.27,0-4.55.17-6.82.26,0,0-.36.02-.36.02l-.3-.2Z"/>
  <path class="cls-2" d="M500.52,522.8c-1.14.16-2.29.32-3.43.49-2.08-.08-4.16-.23-6.25-.23-26.57-.02-53.15-.01-79.72-.01-1.33,0-2.67-.11-3.98.02-2.76.26-3.76-.9-3.49-3.63,1.78-17.89,3.53-35.79,5.23-53.69,1.29-13.58,2.47-27.16,3.77-40.74,1.12-11.69,2.41-23.36,3.51-35.05.27-2.92,1.7-3.75,4.45-3.82,7.39-.17,14.77-.66,22.16-.87,17.07-.5,34.14-.94,51.21-1.33,2.19-.05,4.58-.81,6.53.97,0,45.96,0,91.93,0,137.89Z"/>
  <path class="cls-5" d="M667.95,523.37c-1.71,1.24-3.67.72-5.52.72-52.18.02-104.36.01-156.53-.02-1.84,0-3.83.52-5.47-.88,1.7-.08,3.4-.24,5.09-.24,52.45.02,104.9.05,157.35.1,1.69,0,3.39.21,5.08.32Z"/>
  <path class="cls-5" d="M534.79,835.43c3.77-2.71,7.87-4.23,12.59-3.48-3.95,2.07-8.16,3.17-12.59,3.48Z"/>
  <path class="cls-5" d="M517.67,839.97c3.72-2.93,8.08-3.51,12.63-3.42-3.89,2.33-8.25,2.91-12.63,3.42Z"/>
  <path class="cls-5" d="M547.34,832.03c2.59-2.78,5.92-2.74,9.31-2.46-2.87,1.68-6.02,2.34-9.31,2.46Z"/>
  <path class="cls-5" d="M584.92,821.74c2.3-2.13,4.97-2.95,8.07-2.29-2.4,1.77-5.2,2.14-8.07,2.29Z"/>
  <path class="cls-5" d="M572.42,825.2c2.31-2.52,5.25-2.81,8.4-2.39-2.54,1.72-5.42,2.24-8.4,2.39Z"/>
  <path class="cls-5" d="M559.89,828.64c2.29-2.59,5.26-2.83,8.42-2.41-2.52,1.79-5.42,2.26-8.42,2.41Z"/>
  <path class="cls-5" d="M600.89,817.21c1.11-2.19,3.08-1.24,4.78-1.3-1.34,1.34-3.09,1.23-4.78,1.3Z"/>
  <path class="cls-5" d="M592.96,819.54c.98-2.27,2.91-1.29,4.54-1.33-1.23,1.42-2.94,1.18-4.54,1.33Z"/>
  <path class="cls-5" d="M530.27,836.63c1.01-2.27,2.92-1.31,4.57-1.28-1.25,1.4-2.97,1.12-4.57,1.28Z"/>
  <path class="cls-5" d="M513.14,841.15c1.04-2.2,2.93-1.29,4.59-1.26-1.27,1.38-2.98,1.12-4.59,1.26Z"/>
  <path class="cls-5" d="M508.58,842.3c1.05-2.21,2.93-1.31,4.6-1.23-1.28,1.37-2.98,1.13-4.6,1.23Z"/>
  <path class="cls-5" d="M504.04,843.46c1.02-2.26,2.92-1.32,4.58-1.25-1.27,1.35-2.96,1.18-4.58,1.25Z"/>
  <path class="cls-5" d="M597.43,818.27c.76-1.67,2.16-1.34,3.53-1.14-.91,1.21-2.22,1.16-3.53,1.14Z"/>
  <path class="cls-5" d="M581.33,822.77c.87-1.52,2.25-1.34,3.65-1.1-.96,1.21-2.32,1.12-3.65,1.1Z"/>
  <path class="cls-5" d="M568.79,826.19c.89-1.52,2.26-1.34,3.67-1.06-.97,1.23-2.35,1.05-3.67,1.06Z"/>
  <path class="cls-5" d="M557.43,829.43c.6-.99,1.48-1.16,2.52-.85-.62.93-1.54.98-2.52.85Z"/>
  <path class="cls-5" d="M671.4,523.46c-.38.4-.73.37-1.07-.06.37-.22.72-.2,1.07.06Z"/>
  <path class="cls-5" d="M678.19,523.63c-.35.29-.68.26-.98-.08.35-.25.68-.22.98.08Z"/>
  <path class="cls-5" d="M596.03,724.07c-.06.87-.51,1.41-1.38,1.56.46-.52.92-1.04,1.38-1.56Z"/>
</svg>