<?xml version="1.0" encoding="UTF-8"?>
<svg id="Layer_1" data-name="Layer 1" xmlns="http://www.w3.org/2000/svg" viewBox="0 0 1000 1000">
  <defs>
    <style>
      .cls-1 {
        fill: #4be1ff;
      }

      .cls-1, .cls-2 {
        stroke-width: 0px;
      }

      .cls-2 {
        fill: #fff;
      }
    </style>
  </defs>
  <path class="cls-1" d="M665.29,682.42c-38.21-.22-76.42-.9-114.64-.57-5.22.04-10.44.42-15.64.9-4.48.41-8.43,2.08-11.98,5.08-9.17,7.76-17.93,15.98-27.43,23.39-13.98,10.91-28.66,20.71-43.8,29.86-15.37,9.28-31.54,16.88-48.57,22.56-10.12,3.37-20.38,5.66-31.18,6.27-11.5.65-22.94.31-34.32-.49-13.96-.99-26.38-6.85-37.31-15.54-17.89-14.22-27.75-33.58-34.23-54.9-5.05-16.62-7.38-33.73-7.59-51.09-.13-10.26-.18-20.51-.06-30.77.21-16.91,2.25-33.64,5.25-50.28,1.6-8.89,2.78-17.86,5.24-26.58.75-2.66-.13-4.35-2.84-4.91-8-1.65-15.03-6.05-23.07-7.83-3.4-.75-6.8-3.09-10.33-4.46-3-1.17-6.24-1.71-9.13-2.84-9.05-3.52-18.06-7.2-26.11-12.92-4.72-3.35-10.06-5.83-15.13-8.69-20.08-11.33-38.51-24.95-54.45-41.57-16.28-16.98-28.27-36.55-31.66-60.41-1.25-8.79-.94-17.53.22-26.4,1.31-9.94,5.54-18.54,10.23-27,4.67-8.44,10.11-16.38,16.57-23.64,15.97-17.96,35.43-31.37,55.9-43.49,19.28-11.41,39.99-19.75,60.78-27.86,8.04-3.14,16.27-5.81,24.37-8.78,5.06-1.85,5.43-2.44,4.31-7.49-3.63-16.49-6.72-33.09-8.32-49.88-2.18-22.82-2.84-45.7-1.13-68.64,1.34-18,5.19-35.36,11.44-52.21,8.89-23.98,23.61-42.93,47.8-53,15.14-6.3,31.12-7.7,47.37-5.77,40.67,4.83,75.81,22.79,108.88,45.77,16.2,11.26,32.08,22.99,46.13,36.8,6.03,5.93,12.11,7.61,20.19,7.79,68.79,1.46,137.58.18,206.36.67,8.22.06,16.46-.33,24.67,1.01,14.56,2.37,28.6,6.53,42.05,12.43,31.17,13.67,50.83,37.83,61.74,69.49,3.94,11.43,5.29,23.48,6.82,35.44,1.8,14,1.78,28.08,1.53,42.15-.33,18.59-5.91,35.95-12.74,53-9.24,23.07-24.93,40.53-46.07,53.32-1.99,1.2-5.03,2.04-4.75,4.86.28,2.8,3.35,3.08,5.59,3.79,30.82,9.78,50.33,31.29,62.34,60.4,4.67,11.33,8.98,22.83,11.26,34.94,4.37,23.22,5.6,46.59,3.95,70.18-.9,12.86-1.93,25.69-5.36,38.12-6.69,24.2-17.35,46.53-35.86,63.89-22.11,20.72-47.82,35.11-78.2,40.25-17.47,2.96-35,4.86-52.73,4.91-22.12.06-44.23,1.25-66.36.74ZM609.13,504.8h-.21c0,21.31,0,42.61,0,63.92,0,8.04.08,16.08-.09,24.12-.07,3.1,1,4.27,4.12,4.29,5.21.03,10.43.63,15.64.62,42.81-.04,85.64.86,128.43-.88,16.27-.66,30.31-6.86,42.26-18.05,14-13.11,20.62-29.83,24.42-48.07,2.87-13.75,2.02-27.6.87-41.39-.83-9.97-1.87-20.03-5.76-29.45-8.01-19.42-20.64-34.58-41.07-41.39-10.43-3.48-21.37-5.43-32.55-5.39-28.55.08-57.1,0-85.65-.05-2.61,0-5.21-.32-7.82-.35-13.07-.17-26.13-.28-39.2-.44-2.26-.03-3.33,1.05-3.38,3.25-.02,1.21-.02,2.41-.02,3.62,0,28.54,0,57.09,0,85.63ZM528.07,168.44c-11.91,14.63-23.1,28.23-34.13,41.95-13.36,16.61-26.07,33.69-37.75,51.54-12.1,18.52-23.19,37.65-34.63,56.57-12.17,20.13-23.19,40.88-33.21,62.17-2.18,4.64-2.11,8.76.25,13.19,7.09,13.3,14.01,26.69,21.09,39.99,17.5,32.88,37.8,64.03,58.93,94.65,17.37,25.17,37.38,48.3,56.69,71.97.91,1.12,1.68,2.8,4.39,2.55-2.98-144.45.58-288.91-1.62-434.58ZM609.09,258.55c-.08,0-.16,0-.24,0,0,25.13,0,50.26,0,75.39,0,5.71,0,5.74,5.48,5.85,16.07.33,32.15.27,48.23.77,26.93.83,53.86-.56,80.79-.77,3.03-.02,6.05-.2,8.94-1.13,14.49-4.69,26.62-12.92,36.62-24.41,12.81-14.72,16.11-32.6,16.11-51.13,0-10.58-.63-21.24-1.73-31.86-1.71-16.52-6.85-30.85-20.95-40.9-11.7-8.35-24.01-13.8-38.98-13.63-42.62.48-85.26.18-127.88.19-1.21,0-2.41-.01-3.62.01-1.7.04-2.57,1-2.69,2.62-.09,1.2-.06,2.41-.06,3.62,0,25.13,0,50.26,0,75.39ZM152.22,386.59c-.19,2.91.58,5.53,1.81,8.15,5.67,12.02,14.13,21.9,23.84,30.74,14.68,13.37,31.72,23.22,49.23,32.28,16.08,8.32,32.97,14.76,49.98,20.88,6.29,2.26,6.9,2.23,9.3-4.07,5.07-13.32,9.97-26.71,14.95-40.06,5.12-13.74,10.59-27.36,16.96-40.55,2.75-5.69,2.97-10.33.11-15.82-3.33-6.4-6.16-13.08-8.93-19.75-6.31-15.2-12.04-30.64-17.53-46.16-1.61-4.54-3.18-9.1-4.91-13.59-1.95-5.08-3.15-5.57-8.12-3.58-2.79,1.12-5.48,2.53-8.32,3.52-23.77,8.26-46.83,18.07-68.5,30.95-15.49,9.21-29.41,20.29-40.62,34.55-5.21,6.63-8.33,14.13-9.26,22.51ZM354.98,58.4c-7.22-.41-13.31,2.11-18.94,6.5-5.6,4.36-9.49,9.93-11.8,16.43-5.19,14.65-8.37,29.74-8.72,45.34-.42,18.9.1,37.77,2.61,56.54,1.57,11.74,3.42,23.44,6.08,34.99,1.03,4.44,1.47,4.86,6.22,4.35,4.39-.47,8.76-1.12,13.1-1.94,20.52-3.86,41.18-6.64,61.91-9.21,16.65-2.06,16.7-.25,28.45-16.7,4.08-5.72,8.28-11.37,12.61-16.9,11.87-15.19,23.48-30.61,37.47-43.97,1.57-1.5,1.65-2.49.1-3.88-3.9-3.48-7.72-7.04-11.64-10.49-25.99-22.89-54.34-42.05-87.04-54.09-9.79-3.61-19.9-6.31-30.4-6.96ZM357.37,714.13c3.61-.08,7.18-.15,10.78-.94,15.02-3.31,29.27-8.79,42.88-15.76,26.64-13.65,50.05-32.01,72.88-51.15,3.52-2.95,3.46-3.17.29-6.6-12.71-13.74-24.27-28.43-35.78-43.15-6.94-8.86-13.68-17.87-20.47-26.85-1.63-2.15-3.44-3.83-6.29-4.21-11.74-1.57-23.45-3.35-35.2-4.79-16.74-2.06-33.34-5-49.96-7.82-3.34-.57-7.07-2.75-9.91-1.39-3.42,1.64-2.62,6.37-3.41,9.75-6.64,28.77-8.88,57.95-7.38,87.4.33,6.38.85,12.8,2.05,19.15,2.33,12.36,5.86,24.18,13.19,34.65,3.65,5.21,8.51,8.42,14.41,10.3,3.87,1.23,7.87,1.56,11.92,1.42ZM355.36,455.34c-2.82,2.95-2.68,6.37-3.84,9.21-3.35,8.16-6.51,16.4-9.65,24.64-1.67,4.38-.95,5.88,3.38,7.13,2.3.66,4.68,1.12,7.06,1.46,8.53,1.23,17.13,1.97,25.48,4.26,1.12.31,2.35.68,3.76-.98-7.13-15.78-17.74-29.84-26.19-45.72ZM381.3,272.96c-7.56.42-13.69.95-19.75,2.34-5.46,1.26-10.9,2.61-16.5,3.26-4.08.47-4.33,1-2.91,5.11,3.39,9.83,6.83,19.65,10.28,29.46.32.91.5,2.05,1.67,2.28,1.5.29,2.08-.93,2.72-1.91,3.17-4.87,6.46-9.68,9.44-14.66,4.91-8.21,9.63-16.54,15.04-25.87Z"/>
  <g>
    <path class="cls-2" d="M355.87,804c.56-2.7.56-2.73,3.07-2.74,7.87,0,15.74.01,23.61.01,5.21,0,10.21.97,15.12,2.74,10.7,3.87,13.48,14.64,12.2,22.25-1.08,6.43-4.67,11.05-9.89,14.63-2.09,1.43-2.15,1.5-.75,3.64,5.66,8.64,11.39,17.25,17.06,25.88.65.99,1.55,1.89,1.71,3.09-.71.86-1.55.6-2.28.6-5.73.03-11.47-.03-17.2.07-2,.03-2.99-.76-3.71-2.6-1.9-4.81-4.91-9.06-7.45-13.54-1.61-2.83-3.35-5.59-5.05-8.36-.72-1.18-1.58-2.14-3.11-2.32-2.54-.3-3.29.24-3.31,2.81-.05,6.97-.02,13.94-.06,20.91-.02,3.13-.06,3.14-3.18,3.14-3.93,0-7.87,0-11.8-.02-4.73,0-4.17.13-4.3-4.13-.6-19.66-.12-39.33-.43-58.99-.02-1.23-.13-2.46-.2-3.69.22-1.12.24-2.24-.03-3.36ZM375.81,824.52h.05c0,1.24-.02,2.47,0,3.71.07,4.77-1.17,4.86,4.99,4.66,6.31-.21,9.7-4.18,9-10.38-.34-3-1.94-4.92-4.84-5.8-2.32-.7-4.68-.37-7.03-.5-1.61-.09-2.21.72-2.18,2.25.04,2.02,0,4.04,0,6.07Z"/>
    <path class="cls-2" d="M538.3,853.62c0,5.95.02,11.9,0,17.86-.01,2.57-.06,2.62-2.67,2.66-3.03.06-6.07,0-9.1.04-1.61.02-2.94-.23-3.02-2.27-.02-.42-.3-.84-.49-1.24-2.02-4.29-1.99-4.26-5.43-.92-3.24,3.15-7.03,5.16-11.69,5.14-2.02,0-4.04.03-6.06,0-6.82-.1-10.9-4.26-14.13-9.63-.33-.55-.64-1.14-.63-1.88.06-2.92-.46-5.82-.19-8.74.5-5.43,3-9.59,7.89-12.13,5.17-2.68,10.82-3.61,16.54-4.14,2.45-.23,4.94-.06,7.41-.14,1.98-.06,2.32-.54,2-2.49-.52-3.14-3.04-5.32-6.35-5.4-3.07-.07-5.98.87-8.92,1.57-1.85.44-3.66,1.08-5.47,1.65-1.05.33-2.02.41-2.57-.79-1.5-3.26-2.94-6.55-4.67-9.7-.39-.71-.63-1.63.72-2.11,9.09-3.2,18.38-5.22,28.07-4.2,6.12.65,11.48,2.99,15.19,8.25,2.41,3.43,3.42,7.29,3.46,11.41.05,5.73.01,11.45.01,17.18h.1ZM514.82,849.06c-.94.07-2.07.05-3.16.27-2.44.51-4.75,1.33-6.16,3.64-1.86,3.04-.69,7.14,2.35,8.19,4.74,1.64,10.13-1.6,10.86-6.58.16-1.1.07-2.23.15-3.35.1-1.58-.63-2.26-2.18-2.18-.56.03-1.12,0-1.86,0Z"/>
    <path class="cls-2" d="M459.07,851.17c-4.94,0-9.88-.02-14.82,0-2.31.01-2.59.41-2.06,2.56.98,3.96,5.33,7.33,9.7,7.59,5.67.33,11.2-.34,16.56-2.25.85-.3,1.68-.63,2.54-.89,2.11-.63,2.42-.45,2.45,1.68.04,2.92-.04,5.84-.05,8.76,0,1.5-.59,2.61-2.04,3.16-2.62.98-5.18,2.29-7.88,2.78-1.77.32-3.74.17-5.62.3-5.62.41-11.22.03-16.76-.86-1.25-.2-2.35-1.21-3.6-1.57-3.88-1.14-7.04-3.57-9.36-6.58-2.51-3.26-4.78-6.86-5.14-11.31-.39-4.81-.86-9.55-.26-14.41.68-5.51,2.52-10.45,5.77-14.87,1.98-2.68,4.74-4.55,7.74-5.79,8.97-3.69,18-4.2,27.12-.23,8.18,3.57,12.17,9.96,12.86,18.57.3,3.68.09,7.41.2,11.11.05,1.63-.64,2.17-2.19,2.16-5.05-.05-10.11-.02-15.16-.02v.1ZM450.63,838.86s0,.04,0,.06c2.23,0,4.47.02,6.7,0,1.36-.02,2.06-.61,1.79-2.11-.68-3.81-4.31-7.01-7.94-6.96-4.33.07-8.02,2.96-8.84,6.81-.3,1.44.09,2.18,1.58,2.2,2.23.02,4.47,0,6.7,0Z"/>
    <path class="cls-2" d="M643.48,825.25c0,1.69-.05,3.37.02,5.05.06,1.44-.52,2.02-1.96,2.02-3.26,0-6.52.05-9.78.13-2.36.05-2.42.08-2.42,2.52,0,6.18.07,12.36.12,18.54,0,.34.01.67.04,1.01.37,4.62,1.73,5.82,6.22,5.15,2.22-.33,4.49-.22,6.67-.9,1.08-.34,1.72.19,1.73,1.37,0,3.48.03,6.96.02,10.45,0,1.13-.54,1.78-1.69,2.18-7.39,2.55-14.84,3.39-22.45,1.04-5.4-1.66-8.3-5.55-9.37-10.89-.46-2.3-.72-4.65-.71-7.03.02-6.63-.07-13.26-.11-19.89q-.02-3.57-3.42-3.63c-.22,0-.45,0-.67,0-2.53-.08-2.31-.11-2.64-2.68-.5-3.86.47-6.73,4.22-8.41,3.94-1.77,5.2-5.61,6.58-9.21,2.14-5.58,2.05-5.61,7.74-5.56,1.91.02,3.82.08,5.73.03,1.42-.03,2.04.54,2.02,1.98-.04,2.36.06,4.72,0,7.08-.03,1.46.61,2,2.01,1.98,3.26-.03,6.51.04,9.76.35,2.31.22,2.34.16,2.39,2.59.03,1.57,0,3.15,0,4.72h-.05Z"/>
    <path class="cls-2" d="M595.58,855.86c0,4.3-.03,8.55.02,12.81.02,1.31-.54,2.01-1.68,2.59-4.27,2.15-8.74,3.4-13.54,3.67-4.53.25-8.99-.34-13.41-1.03-2.8-.44-5.56-1.48-7.59-3.78-.5-.57-1.26-.91-1.94-1.31-1.39-.82-2.54-1.93-3.34-3.28-1.19-2.01-2.19-4.15-3.22-6.25-1.07-2.16-1.04-4.51-1.13-6.85-.2-4.94-.52-9.88.49-14.78,2.24-10.96,9.06-17.5,19.75-20.08,8.91-2.14,17.56-.98,25.95,2.61,1.24.53,1.44,1.04.95,2.26-1.43,3.54-2.78,7.11-4.07,10.7-.57,1.58-1.28,2.13-2.99,1.36-2.66-1.2-5.44-2.08-8.4-2.33-7.03-.59-10.56,2.18-11.96,9.77-.51,2.75-.36,5.62-.09,8.41.61,6.22,4.62,9.69,10.87,9.53,4.47-.11,8.55-1.72,12.62-3.36.71-.29,1.3-.92,2.71-.67Z"/>
  </g>
  <g>
    <path class="cls-2" d="M242.89,938.45c0-10.9,0-21.81,0-32.71,0-3.61.02-3.62,3.73-3.61,8.88.03,17.76,0,26.64.13,4.85.07,9.57.94,14.15,2.69,5.74,2.2,10.47,8.23,10.35,15.15-.12,6.79-2.6,11.94-8.73,15.12-.3.16-.61.29-.89.48-.87.6-.95,1.22.03,1.77.39.22.83.33,1.25.48,5.2,1.96,8.17,5.83,9.23,11.15.66,3.32.79,6.79-.08,10.05-1.81,6.79-6.53,11.19-12.89,13.68-4.84,1.89-10,2.39-15.22,2.32-8.09-.11-16.19-.02-24.28-.06-3.08-.01-3.2-.13-3.21-3.27-.03-11.13,0-22.26,0-33.38h-.09ZM262.5,952.18h-.04c0,1.91.06,3.82-.02,5.72-.06,1.54.49,2.28,2.11,2.27,3.03-.02,6.05.1,9.04-.6,1.02-.24,1.89-.64,2.68-1.3,2.62-2.21,3.17-5.02,2.37-8.21-.82-3.27-3.2-4.87-6.29-5.25-2.66-.33-5.38-.14-8.07-.19-1.28-.03-1.81.6-1.8,1.85.02,1.91,0,3.82,0,5.72ZM262.46,923.71c0,1.24.06,2.47-.02,3.7-.11,1.68.48,2.52,2.29,2.43,2.24-.11,4.5.01,6.73-.17,3.81-.31,5.68-2.19,5.86-5.65.2-3.9-1.23-5.71-5.2-6.49-.88-.17-1.77-.34-2.66-.35-8.25-.06-6.8-.94-7.01,6.52Z"/>
    <path class="cls-2" d="M722.25,969.83c-.76,1.44-.42,2.57-.42,3.65,0,7.87.06,15.73.06,23.6,0,2.79-.05,2.82-2.78,2.84-4.83.04-9.67,0-14.5.08-1.58.03-2.3-.54-2.18-2.15.05-.67,0-1.35,0-2.02-.03-24.61-.07-49.22-.1-73.82,0-.45.03-.9,0-1.35-.13-1.53.43-2.25,2.1-2.21,3.93.09,7.87.09,11.8.03,1.6-.02,2.39.74,3.1,2.06.87,1.62.51,4.46,2.49,4.71,1.44.18,2.39-2.36,3.77-3.5,9.84-8.08,22.82-4.79,28.08,7.11,3.57,8.08,3.92,16.53,3.03,25.11-.55,5.32-2.23,10.21-5.41,14.66-6.62,9.26-19.63,9.69-27.32,2.69-.49-.45-1-.87-1.72-1.49ZM737.45,946.85c.08-2.93-.17-5.83-.87-8.67-.93-3.78-3.29-5.39-7.16-5.04-3.82.35-5.96,2.27-6.72,6.32-.57,3.08-1.02,6.2-.77,9.36.21,2.69.54,5.36,1.83,7.79,1.41,2.64,3.6,3.74,6.6,3.76,2.96.02,4.48-1.61,5.63-3.98,1.48-3.03,1.59-6.27,1.45-9.54Z"/>
    <path class="cls-2" d="M671.61,967.85c-1.18.07-1.52.87-2.02,1.44-4.68,5.27-10.65,7.17-17.52,6.78-2.94-.17-5.82-.5-8.41-2.07-4.07-2.46-6.47-6.08-7.57-10.67-.91-3.81-.92-7.57.23-11.3,1.79-5.84,6.18-8.93,11.73-10.58,5.29-1.58,10.7-2.54,16.26-2.28,1.23.06,2.47.05,3.71.03,1.52-.02,1.92-.82,1.6-2.22-.81-3.52-3.67-5.84-7.32-5.7-3.05.12-5.96,1.01-8.88,1.82-1.73.48-3.45,1-5.17,1.51-1.03.31-1.72,0-2.16-1-1.4-3.18-2.85-6.35-4.25-9.54-.5-1.14-.18-1.86,1.06-2.33,9.36-3.56,18.96-5.69,28.99-3.92,7.16,1.26,12.68,5.01,15.59,11.96.83,1.98,1.33,4.02,1.32,6.21-.02,11.91.02,23.82.04,35.73,0,.56-.02,1.12-.01,1.69.01,1.09-.47,1.67-1.61,1.67-3.37,0-6.74-.04-10.11.03-1.38.03-1.99-.8-2.55-1.82-1-1.84-2-3.68-2.95-5.43ZM660.83,962.26c5.02-.05,7.49-2.1,8.6-7.12,1-4.55.51-5.19-3.97-5.1-.89.02-1.79.03-2.68.12-1.81.17-3.5.76-4.95,1.86-2.06,1.56-2.9,5.03-1.91,7.64.71,1.87,2.15,2.64,4.9,2.61Z"/>
    <path class="cls-2" d="M429.81,946.7c.61,6.96-1,12.83-4.45,18.17-4.53,7.01-11.16,10.43-19.39,10.93-3.82.23-7.64.32-11.36-.76-1.79-.52-3.72.01-5.45-1.08-7.32-4.61-13.08-10.27-14.65-19.31-.97-5.62-1.06-11.15.14-16.69,2.6-11.95,9.64-17.79,21.23-20.1,8.12-1.62,15.83-.33,22.77,4.5,6.94,4.83,10.15,11.74,11.13,19.87.2,1.66.03,3.36.03,4.48ZM393.39,946.83c0,1.03-.04,1.93,0,2.83.13,2.6.63,5.14,1.76,7.48,1.43,2.96,3.76,4.6,7.19,4.64,3.34.03,5.11-1.92,6.35-4.63.51-1.11,1-2.28,1.26-3.47,1.15-5.23,1.14-10.44-.43-15.62-1.13-3.73-3.65-5.95-7.12-6.11-3.68-.17-6.49,1.87-7.74,5.73-.98,3.01-1.38,6.12-1.28,9.15Z"/>
    <path class="cls-2" d="M334.6,975.88c-2.22-.38-4.92.07-7.53-.88-5.52-2.01-10.13-5.26-13.43-10.07-6.2-9.04-6.38-18.94-3.65-29.14,1.99-7.42,6.5-12.84,13.57-15.75,9.04-3.72,18.19-3.67,27.09.65,5.73,2.78,9.54,7.44,11.79,13.29,3.4,8.84,3.52,17.79-.12,26.6-3.32,8.04-9.28,12.97-17.92,14.65-3.12.61-6.24.67-9.81.66ZM327.85,946.46c-.1,3.75.48,7.4,2.02,10.82,1.37,3.05,3.89,4.53,7.23,4.57,2.98.04,4.69-1.79,5.98-4.18.86-1.59,1.36-3.3,1.71-5.07.99-4.95.36-9.84-.72-14.66-.8-3.57-3.52-5.91-6.85-5.88-3.99.04-6.21,1.31-7.65,4.87-1.23,3.05-1.62,6.27-1.72,9.54Z"/>
    <path class="cls-2" d="M487.88,965.43c0-1.8-.04-3.6.01-5.39.07-2.28.22-2.29,2.33-1.6,6.08,1.96,12.11,4.12,18.68,3.74,1.78-.1,3.29-.53,4.44-1.97.99-1.24,1.03-2.59-.34-3.02-3.42-1.08-5.87-4.09-9.59-4.53-.93-.11-1.96-.7-2.65-1.37-1.01-.98-2.23-1.53-3.45-2-6.37-2.47-9.23-7.22-9.49-13.88-.27-6.96,2.86-11.88,8.9-14.97,5.32-2.72,11.11-3.52,17.03-3.14,5.65.37,10.99,2.12,16.29,4.02,1.46.52,1.91,1.2,1.21,2.76-1.24,2.76-2.21,5.64-3.37,8.44-.87,2.11-1.05,2.16-3.23,1.31-4.54-1.75-9.14-3.14-14.1-2.73-.56.05-1.12.04-1.68.09-.96.07-1.77.41-2.05,1.43-.32,1.14.18,2,1.11,2.57,1.06.64,2.17,1.18,3.27,1.73,4.22,2.11,8.7,3.61,12.83,5.93,6.8,3.81,8.81,9.87,8.31,17.08-.44,6.38-3.86,10.8-9.59,13.59-4.7,2.28-9.73,2.73-14.78,2.68-5.84-.06-11.63-.91-17.3-2.38-2.67-.69-2.69-.72-2.74-3.32-.04-1.68,0-3.37,0-5.06h-.03Z"/>
    <path class="cls-2" d="M579.4,926.06c0,1.68-.05,3.37.02,5.05.06,1.56-.54,2.22-2.16,2.19-3.14-.07-6.29-.02-9.43.03-2.36.03-2.44.07-2.41,2.49.09,6.51-.18,13.02.45,19.52.08.78.11,1.58.31,2.33.57,2.1,1.29,2.65,3.63,2.71,2.58.06,5.14-.12,7.7-.62,2.45-.48,2.66-.23,2.69,2.32.04,3.03-.02,6.06.01,9.09.01,1.27-.42,2.14-1.7,2.55-7.38,2.39-14.78,3.73-22.42,1.06-4.5-1.57-7.4-4.59-8.73-9.08-.89-3.01-1.47-6.09-1.47-9.27,0-6.74-.07-13.47-.14-20.21-.03-3.07-.06-3.11-2.92-3.06-4.13.08-3.68.41-3.72-3.81,0-.79.02-1.57-.03-2.36-.08-1.23.34-2.14,1.42-2.82,1.13-.72,2.1-1.73,3.28-2.34,3.12-1.61,4.7-4.35,5.93-7.44.62-1.56,1.48-3.03,2.06-4.6.77-2.07,2.04-3,4.34-2.76,2.11.23,4.26.08,6.4.16,2.88.11,2.91.14,2.95,3.17.03,1.91.06,3.82,0,5.73-.06,1.72.67,2.42,2.39,2.4,3.14-.04,6.29.09,9.43.05,1.55-.02,2.28.52,2.2,2.14-.08,1.79-.02,3.59-.02,5.39h-.08Z"/>
    <path class="cls-2" d="M478.43,966.46c0,1.01,0,2.02,0,3.03-.03,3.85-.08,3.92-3.96,4.96-6.17,1.65-12.39,2.1-18.66.66-5.56-1.28-8.65-5.3-10.98-10.08-.27-.55-.07-1.32-.08-1.99-.09-8.54-.18-17.08-.26-25.62,0-.9,0-1.8-.04-2.7-.04-.94-.57-1.42-1.51-1.44-.22,0-.45,0-.67-.02-4.41-.29-4.24-.3-4.53-4.85-.17-2.56.51-4.23,2.8-5.46,4.13-2.23,6.74-5.79,8.25-10.2.18-.53.42-1.04.63-1.56q1.68-4.06,6.14-4.07c2.02,0,4.05.05,6.07-.02,1.69-.06,2.49.59,2.44,2.35-.07,2.36.02,4.72-.04,7.08-.03,1.45.61,2,2.02,1.98,3.15-.04,6.3.08,9.44-.01,1.74-.05,2.4.54,2.32,2.33-.14,3.37-.14,6.74-.08,10.11.03,1.7-.54,2.43-2.32,2.38-3.15-.09-6.3.08-9.44-.02-1.78-.06-2.35.6-2.33,2.34.09,6.07-.07,12.14.11,18.21.18,6.05,2.08,7.53,8.06,6.71,1.55-.21,3.11-.45,4.64-.82,1.54-.37,2.06.21,2.02,1.68-.05,1.68-.01,3.37-.01,5.06h0Z"/>
    <path class="cls-2" d="M608.1,927.03c1.46-.19,1.79-1.12,2.31-1.8,1.24-1.62,2.77-2.91,4.33-4.21,4.25-3.53,9.19-3.82,14.34-3.32.93.09,1.41.41,1.31,1.48-.44,4.69-.74,9.4-1.25,14.09-.3,2.77-.43,2.78-3.43,2.76-2.59-.02-5.15.17-7.73.46-3.6.4-7.39,3.88-7.65,8.01-.6,9.33-.26,18.64-.27,27.96,0,2.49.09,2.56-2.25,2.58-4.95.06-9.89,0-14.84.07-1.73.03-2.48-.68-2.43-2.38.03-1.01,0-2.02-.01-3.03-.04-15.85-.09-31.69-.13-47.54,0-.22,0-.45,0-.67.04-2.92.04-2.93,3.02-2.97,3.03-.04,6.08.08,9.1-.1,1.82-.11,2.6.62,3.12,2.25.7,2.19,1.64,4.31,2.44,6.37Z"/>
  </g>
</svg>