<?xml version="1.0" encoding="UTF-8"?>
<svg id="Layer_1" data-name="Layer 1" xmlns="http://www.w3.org/2000/svg" viewBox="0 0 1000 1000">
  <defs>
    <style>
      .cls-1 {
        fill: #7ddefc;
      }

      .cls-1, .cls-2 {
        stroke-width: 0px;
      }

      .cls-2 {
        fill: #fff;
      }
    </style>
  </defs>
  <path class="cls-1" d="M765.49,134.37c-.35,26.59-2.49,46.6-5.55,66.53-1.82,11.88-4.19,23.66-6.69,35.42-1.03,4.83-.73,5.33,3.7,6.64,35.34,10.44,69.06,24.7,100.76,43.52,20.79,12.34,39.94,26.83,55.36,45.67,12.73,15.56,21.42,32.91,21.88,53.54.38,16.87-5.41,31.79-14.34,45.78-9.95,15.59-23.33,27.81-37.78,39.01-17.02,13.19-35.61,23.78-54.98,33.08-23,11.04-46.62,20.5-71.1,27.74-3.67,1.09-3.55,1.14-2.7,5.02,3.64,16.5,6.75,33.09,8.93,49.86,2.7,20.81,4.31,41.67,3.62,62.68-.76,23.03-3.9,45.64-12.11,67.29-6.14,16.19-14.95,30.58-28.99,41.33-12.73,9.75-27.26,14.19-43.04,14.82-14.57.58-28.77-1.63-42.75-5.85-24.48-7.39-46.83-19.21-68.33-32.72-21.64-13.61-41.56-29.52-60.68-46.46-2.19-1.94-4.27-4-6.42-5.97-3.16-2.9-3.6-2.91-6.87,0-6.08,5.39-12,10.95-18.22,16.18-28.69,24.14-59.14,45.64-93.65,60.8-19.46,8.55-39.6,14.57-61.12,14.83-14.59.17-28.42-2.61-41.1-10.11-14.62-8.65-24.79-21.24-32.11-36.33-8.31-17.13-12.38-35.41-14.7-54.18-3.42-27.61-2.11-55.17,1.16-82.65,2.11-17.73,5.19-35.34,9.27-52.75,1.03-4.37.96-4.37-3.38-5.7-33.01-10.14-64.76-23.3-94.92-40.14-18.08-10.1-34.92-22.02-49.82-36.45-12.96-12.55-23.77-26.69-29.69-44.04-7.77-22.75-4.16-44.13,7.84-64.5,7.35-12.47,17.17-22.79,27.81-32.43,16.86-15.27,36.03-27.07,56.06-37.65,21.31-11.24,43.53-20.3,66.24-28.21,5.5-1.91,10.95-4.12,16.78-4.99,2.53-.38,2.9-2.25,2.61-4.25-.37-2.56-1-5.09-1.53-7.63-4.49-21.15-7.93-42.46-9.85-64.01-2.62-29.46-2.19-58.76,4.27-87.75,2.72-12.23,6.67-24.08,12.63-35.18,13.42-25.03,33.76-39.71,62.46-42.28,12.15-1.09,24,.29,35.8,2.89,21.47,4.72,41.25,13.6,60.31,24.29,30.63,17.16,58.29,38.37,84.17,61.99.6.55,1.22,1.08,1.79,1.66,2.88,2.97,2.94,3.02,5.98.23,15.92-14.64,32.38-28.64,50.03-41.16,20.44-14.49,41.63-27.75,64.87-37.37,15.81-6.55,32.05-11.77,49.23-13.19,37.79-3.11,65.23,11.9,81.89,45.45,8.27,16.66,12.31,34.49,14.75,52.78,1.82,13.72,2.5,27.5,2.23,34.93ZM501.61,246.18c-26.18-.46-51.32,1.04-76.47,2.58-3.59.22-6.11,1.55-8.01,4.58-2.16,3.43-4.61,6.68-6.86,10.06-14.66,22.05-28.06,44.87-41.18,67.86-9.91,17.36-18.46,35.4-27.37,53.27-1,2.01-1.09,3.86,0,6,9.84,19.41,19.33,38.98,30.19,57.86,13.85,24.09,28.54,47.63,44.05,70.68,3.2,4.76,6.78,6.45,12.27,6.81,49.05,3.19,98.08,3.45,147.11-.47,3.04-.24,5.12-1.19,6.91-3.65,6.31-8.67,12.13-17.68,17.84-26.73,11.09-17.58,21.58-35.52,31.75-53.65,9.38-16.72,17.68-33.99,26.17-51.16,1.17-2.37,1.26-4.47.06-6.92-8.34-17.08-16.71-34.14-26.15-50.64-9.84-17.19-19.56-34.46-30.46-51.02-6.34-9.63-12.75-19.21-19.13-28.81-1.59-2.39-3.45-3.92-6.67-4.1-24.99-1.39-49.96-3.07-74.04-2.56ZM273.88,634.61c.29,15.79.79,31.21,3.7,46.43,2.45,12.84,6.21,25.2,13.53,36.24,5.35,8.07,12.42,13.5,22.12,15.4,6.63,1.3,13.2,1.46,19.86.54,21.46-2.96,40.8-11.69,59.33-22.3,16.35-9.36,31.97-19.88,46.68-31.7,10.26-8.24,20.23-16.81,30.12-25.48,2.95-2.59,2.92-2.84.21-5.81-4.05-4.43-8.23-8.76-12.28-13.19-11.28-12.35-22.24-24.98-32.57-38.14-7.92-10.09-15.69-20.29-23.52-30.45-1.62-2.1-3.31-3.77-6.28-4.04-13.57-1.24-27.07-3.17-40.52-5.3-21.47-3.39-42.83-7.4-63.94-12.63-4.37-1.08-4.68-.89-5.49,3.47-1.89,10.21-4.07,20.37-5.72,30.63-3.02,18.79-4.59,37.69-5.24,56.33ZM895.81,387.16c-.32-4.98-1.44-9.69-3.37-14.22-4.57-10.7-12.1-19.19-20.43-27-18.21-17.08-39.65-29.29-61.82-40.28-14.71-7.29-29.95-13.34-45.48-18.69-5.99-2.06-11.95-4.19-17.96-6.17-1.44-.48-3.21-1.55-4.44.22-.98,1.42-1.99,3.05-2.22,4.7-1.2,8.6-4.47,16.59-7.2,24.7-8.31,24.62-17.63,48.87-28.35,72.55-1.15,2.55-1.22,4.86.09,7.43,1.7,3.32,3.05,6.81,4.51,10.25,9.72,22.87,18.82,45.99,26.45,69.66,2.14,6.64,4.09,13.35,6.17,20.01,1.15,3.68,1.46,3.8,5.19,2.73.47-.13.95-.23,1.41-.39,13.98-4.78,27.97-9.49,41.58-15.28,23.98-10.21,47.05-22.02,68.01-37.63,12.06-8.99,22.91-19.21,30.99-32.06,3.96-6.3,6.25-13.17,6.86-20.53ZM726.09,138.28c0-19.19-1.32-37.3-5.84-55.05-2.54-9.97-6.23-19.5-12.23-27.95-4.75-6.69-10.86-11.66-19.06-13.44-7.51-1.63-15.08-1.97-22.76-.85-19.57,2.85-37.46,10.34-54.61,19.76-15.53,8.53-30.16,18.47-44.34,29.11-12.75,9.56-24.64,20.13-36.7,30.51-2.7,2.32-2.66,2.72-.23,5.44.32.36.69.69,1.02,1.04,23.93,24.83,45.73,51.45,66.18,79.19,2.62,3.56,5.44,5.45,9.87,5.96,34.85,4.02,69.45,9.54,103.56,17.91,3.17.78,3.21.71,3.95-2.83,3.16-15.09,6.15-30.21,8.02-45.54,1.8-14.69,2.88-29.41,3.16-43.25ZM254.01,493.44c3.83.98,4.13-1.22,4.61-3.09,2.77-10.87,6.52-21.43,10.13-32.03,7.91-23.2,16.8-46.01,27.06-68.28.99-2.16.89-3.93-.12-5.96-5.78-11.64-10.47-23.75-15.3-35.8-8.52-21.24-15.91-42.88-22.48-64.8-1.14-3.81-1.26-3.85-4.96-2.58-13.36,4.56-26.77,8.98-39.84,14.35-28.04,11.52-54.73,25.43-78.35,44.68-9.12,7.43-17.18,15.89-23.53,25.83-8.06,12.64-9.32,25.58-1.84,39.1,5.93,10.71,14.23,19.34,23.26,27.29,16.46,14.48,35.4,25.18,54.86,34.99,16.55,8.34,33.8,15.04,51.24,21.24,5.35,1.9,10.78,3.57,15.26,5.05ZM528.25,650.76c5.9,4.97,11.64,9.69,17.25,14.56,23.03,19.99,47.76,37.51,74.98,51.34,15.87,8.06,32.42,14.27,50.34,15.9,8.14.74,16.26.66,23.98-2.64,9.08-3.87,14.4-11.34,18.68-19.74,8.68-17.01,11.58-35.45,12.64-54.17,2.11-37.41-2.58-74.21-10.91-110.62-.42-1.84-1.38-2.43-3.11-2.03-.95.22-1.89.46-2.84.7-20.48,5.11-41.19,9.08-62.03,12.4-12.99,2.07-26.01,4-39.12,5.07-4.41.36-7.43,2.2-10,5.82-5.17,7.28-10.72,14.29-16.18,21.36-16.69,21.61-34.45,42.29-53.68,62.05ZM273.4,135.99c.12,8.93.43,17.84,1.12,26.76,1.68,21.75,5.51,43.14,10.09,64.42.84,3.91,1.05,3.92,4.87,2.93,22.32-5.8,44.98-9.91,67.76-13.43,12.2-1.89,24.42-3.63,36.73-4.71,2.79-.25,4.93-1.33,6.48-3.7,1.15-1.76,2.5-3.4,3.77-5.09,10.66-14.13,21.48-28.13,32.92-41.65,10.18-12.03,20.48-23.94,31.56-35.17,2.61-2.64,2.57-3.41-.19-5.91-3.01-2.73-6.12-5.33-9.17-8.01-20.17-17.74-41.64-33.71-64.85-47.27-17.32-10.11-35.41-18.42-55.22-22.47-8.35-1.71-16.75-2.09-25.21-1-8.8,1.14-15.81,5.35-21.41,12.23-6.63,8.14-10.25,17.69-12.97,27.56-4.91,17.81-6.46,36.07-6.27,54.51ZM452.25,207.61c31.74-1.91,63.42-1.43,95.59-.13-.78-2.38-1.89-3.53-2.89-4.76-9.89-12.06-19.85-24.05-30.3-35.64-4.24-4.7-8.59-9.32-12.75-14.09-1.65-1.9-2.91-1.6-4.34.04-.32.37-.67.71-1,1.06-14.78,15.56-28.6,31.94-42.08,48.62-1.06,1.32-2.55,2.55-2.23,4.9ZM548.14,566.52c-32.22,1.4-64.03,2.17-95.81-.25-.06.99-.21,1.4-.07,1.59,1.13,1.57,2.25,3.16,3.5,4.65,13.23,15.79,26.45,31.58,40.76,46.44,3.88,4.03,3.75,4.06,7.5.19,14.92-15.4,28.22-32.19,42.12-48.48.83-.97,1.66-1.98,2.01-4.13ZM680.05,435.26c-1.49,1.38-2,3.12-2.8,4.66-8.82,16.99-17.83,33.87-27.83,50.2-4.74,7.75-9.57,15.44-14.29,23.21-1.01,1.66-2.52,3.2-2.48,5.71,7.9-1.34,15.43-2.42,22.87-3.91,14.94-3,29.85-6.12,44.72-9.4,4.34-.96,4.63-.64,3.11-5.52-5.41-17.34-10.92-34.65-17.49-51.59-1.74-4.48-2.92-9.26-5.82-13.35ZM366.77,255.35c-.49-.05-.98-.21-1.44-.13-8.94,1.58-17.87,3.28-26.83,4.75-13.62,2.24-27.06,5.34-40.5,8.42-2.01.46-3.09.88-2.2,3.53,5.3,15.86,10.22,31.84,16.03,47.53,2.33,6.28,4.39,12.68,7.93,19.69,2.15-4.68,4.29-8.35,6.28-12.03,12.28-22.71,24.9-45.2,38.96-66.87.94-1.46,2.13-2.87,1.77-4.89ZM320.29,436.21c-1.73,1-2.05,2.14-2.44,3.18-7.6,20.21-14.72,40.57-20.85,61.28-1.23,4.14-1.2,4.18,2.96,5.16,14.53,3.42,29.13,6.45,43.81,9.15,7.93,1.46,15.91,2.6,24.89,4.05-17.8-27.23-33.77-54.47-48.37-82.81ZM632.46,255.18c.35,1.13.44,1.99.85,2.63,16.65,25.97,32.28,52.52,46.57,80.73,1.31-2.91,2.38-5.05,3.25-7.27,7.04-17.82,12.9-36.05,18.66-54.31.59-1.86,1.09-3.74,1.7-5.59.51-1.56.09-2.5-1.58-2.82-.8-.15-1.58-.37-2.37-.57-15.13-3.76-30.41-6.75-45.75-9.48-6.98-1.24-14.01-2.19-21.33-3.32Z"/>
  <path class="cls-2" d="M210.63,996.12c-10.31,0-19.57-.1-28.82.07-2.4.04-3.51-1.17-4.62-2.85-3.3-5.02-6.61-10.03-9.95-15.02-6.5-9.71-13.08-19.37-19.51-29.14-1.76-2.67-3.68-4.38-7.1-3.78-2.97.52-6.96-1.45-8.73.93-1.42,1.91-.48,5.61-.49,8.51-.02,12.67-.06,25.34.03,38.01.02,2.4-.46,3.42-3.17,3.34-7.14-.2-14.3-.12-21.44-.03-2.07.03-3.02-.63-2.77-2.77.09-.8.01-1.62.01-2.43,0-41.1,0-82.2,0-123.29,0-.97.09-1.96-.02-2.92-.25-2.28.99-2.71,2.93-2.69,17.87.17,35.74.16,53.6.5,7.48.14,14.81,1.67,21.8,4.5,9.53,3.86,15.67,10.71,18.18,20.73,2.37,9.46,2.64,18.96.3,28.44-3.11,12.58-10.36,21.46-23.16,25.19-.46.13-.93.28-1.38.44-.14.05-.26.18-.89.67,3.09,6.24,7.52,11.75,11.34,17.63,3.8,5.85,7.66,11.67,11.52,17.49,3.92,5.9,7.87,11.79,12.33,18.47ZM131.4,903.93c0,5.03.08,10.06-.04,15.08-.05,2.18.82,2.79,2.87,2.74,5.51-.12,11.04.12,16.54-.17,4.51-.23,9.07-.15,13.49-1.49,6.38-1.93,9.81-6.12,10.03-12.66.07-2.11.1-4.22.04-6.32-.25-9.1-3.57-12.76-12.55-14.3-9.2-1.58-18.46-.47-27.67-.91-2.17-.1-2.78.94-2.74,2.95.09,5.03.03,10.05.03,15.08Z"/>
  <path class="cls-2" d="M803.55,859.58c8.67-.14,17.12,1.13,25.33,3.99,9.71,3.39,17.07,9.76,23.09,17.9.96,1.3.88,2.32-.45,3.27-5.94,4.26-11.67,8.79-17.2,13.57-1.14.98-2.05.68-2.9-.31-.95-1.1-1.86-2.25-2.81-3.36-8.95-10.47-25.81-14.18-38.29-8.39-4.81,2.23-7.7,5.76-7.72,11.34-.02,5.43,2.89,8.69,7.52,10.88,4.56,2.16,9.38,3.51,14.25,4.73,9.27,2.33,18.58,4.59,27.46,8.14,10.51,4.2,18.89,10.92,22.27,22.25,3.31,11.11,2.91,22.2-1.95,32.81-3.58,7.83-9.7,13.42-17.55,16.82-11.54,4.99-23.63,6.14-36.17,5.23-7.53-.55-14.71-1.95-21.84-4.24-9.87-3.18-17.06-9.75-23.26-17.68-1.33-1.71-1.32-3.2.63-4.5,5.55-3.68,10.71-7.86,15.86-12.09,2.58-2.12,3.11-2.01,5.07.56,8.98,11.75,21.15,15.34,35.31,13.8,4.07-.44,7.94-1.53,11.55-3.53,6.61-3.67,8.55-12.83,4.02-18.94-2.42-3.27-5.71-5.18-9.46-6.51-7.65-2.7-15.54-4.56-23.31-6.86-6.68-1.98-13.37-3.92-19.58-7.21-12.66-6.7-19.13-17.04-19.01-31.47.13-15.02,5.92-26.76,19.5-33.97,9.26-4.92,19.28-6.47,29.65-6.23Z"/>
  <path class="cls-2" d="M334.12,908.94c7.83-10.48,18.74-14.75,31.29-16.29,8.46-1.04,16.82-1.09,25.23.07,5.19.71,10.25,1.94,14.9,4.28,8.12,4.09,12.6,11,14.3,19.79.74,3.83,1.18,7.7,1.18,11.62,0,21.45.05,42.9.08,64.35,0,3.25-.02,3.32-3.12,3.35-5.69.05-11.38.05-17.07,0-3.1-.03-3.15-.14-3.03-3.4.04-1.13.24-2.26.35-3.39.08-.83,0-1.66-.8-2.11-.85-.47-1.6,0-2.19.55-3.12,2.92-6.69,5.14-10.52,6.96-11.11,5.27-22.57,5.85-34.1,1.85-10.22-3.54-18.13-15.12-18.32-25.99-.08-4.4,0-8.79,1.18-13.06,3.13-11.26,11.03-17.65,21.78-20.94,7.16-2.19,14.54-3.29,21.99-3.95,5.17-.46,10.34-1,15.52-1.39,2.47-.19,3.51-1.28,3.1-3.75-.16-.96-.19-1.94-.31-2.91-.95-7.88-3.7-10.5-11.17-12.03-5.38-1.1-11.01-1.25-16.46-.07-4.99,1.08-9.66,2.97-12.81,7.33-1.38,1.91-2.64,2.31-4.76.76-3.93-2.87-8.1-5.4-12.17-8.08-1.48-.97-3.06-1.84-4.07-3.55ZM395.85,958.89h.17c0-2.27-.1-4.54.03-6.81.12-2.1-.68-2.95-2.8-2.79-6.94.53-13.87,1.1-20.68,2.67-2.39.55-4.69,1.31-6.84,2.45-6.39,3.4-9.35,11.81-6.56,18.46,1.06,2.53,2.86,4.44,5.48,5.16,2.78.77,5.61,1.35,8.6,1,5.94-.71,11.14-3.13,16.25-6.08,4.59-2.65,7.75-5.82,6.39-11.64-.18-.77-.02-1.61-.02-2.42Z"/>
  <path class="cls-2" d="M314.75,981.6c-7.28,9.5-16.38,14.98-27.95,16.51-8.59,1.13-17.09,1.2-25.7.06-19.49-2.58-32.23-14.15-36.31-33.41-2.84-13.38-2.73-26.77.48-40.03,2.22-9.17,6.57-17.28,14.08-23.36,5.69-4.61,12.38-7.13,19.43-8.47,9.34-1.78,18.74-1.73,28,.81,12.1,3.31,20.55,10.77,25.18,22.41,2.48,6.24,3.57,12.8,3.78,19.5.14,4.38.29,8.77.29,13.15,0,3.01-.29,3.26-3.41,3.27-11.21.04-22.42.02-33.64,0-8.94,0-17.87-.05-26.81-.06-3.74,0-3.88.17-3.27,3.85.48,2.88,1.03,5.73,2.02,8.5,2.2,6.13,6.32,10.1,12.69,11.6,6.9,1.63,13.8,1.67,20.7-.1,3.87-.99,7.26-2.78,10.04-5.66,1.12-1.16,2.21-1.83,3.78-.67,5.47,4.02,10.97,8,16.6,12.09ZM249.54,934.08c1.26.93,2.59.59,3.85.59,9.89,0,19.78-.03,29.68-.04,9.02-.01,9.24-.31,6.78-9.26-1.82-6.6-5.78-11.3-12.59-12.79-3.59-.79-7.34-1-11.11-.46-6.53.93-11.06,4.33-13.6,10.34-1.58,3.73-2.54,7.65-3,11.63Z"/>
  <path class="cls-2" d="M443.6,946.27c-.56-9.86.78-19.48,4.76-28.53,6.55-14.91,18.03-23.11,34.26-25.24,9.87-1.3,19.42-.51,28.85,2.28,7.2,2.13,13.03,6.36,17.67,12.31,1.37,1.76,1,2.66-.7,3.84-4.67,3.23-9.27,6.58-13.81,9.99-1.81,1.36-3.2,1.26-4.52-.53-5.79-7.86-21.31-7.98-28.96-4.5-4.53,2.06-7.59,5.71-9.13,10.29-4.33,12.86-4.42,25.84.01,38.7,1.91,5.54,5.94,9.2,11.62,10.9,6.21,1.87,12.46,1.75,18.71.25,3.6-.86,6.54-2.87,8.9-5.66,1.27-1.5,2.32-1.96,4.06-.7,4.6,3.33,9.36,6.45,13.92,9.83,2.96,2.18,2.86,2.32.43,5.27-5.95,7.24-13.9,11.23-22.82,12.96-10.78,2.08-21.66,2.03-32.33-1.04-14.6-4.21-23.86-13.93-28.25-28.32-1.18-3.87-2.08-7.87-2.58-11.87-.42-3.36-.09-6.81-.09-10.22Z"/>
  <path class="cls-2" d="M730.78,919.7c-.24,12.98.16,29.05-.45,45.13-.71,18.59-10.85,30.29-29.24,33.18-12.91,2.03-25.53.84-38.05-2.48-.63-.17-1.27-.3-1.88-.51-3.19-1.1-3.44-1.45-2.16-4.41,2.38-5.52,3.94-11.32,5.89-16.98,1.38-4.02,1.48-4.04,5.4-2.56,6.59,2.48,13.29,4.08,20.42,3.61,5.98-.39,9.57-3.14,11.2-8.94.71-2.52,1.02-5.07,1.02-7.69.03-29.24.08-58.47.13-87.71,0-1.46-.05-2.93,0-4.38.15-3.6.31-3.72,3.98-3.72,6.66,0,13.32-.01,19.98-.04,3.7-.01,3.74-.03,3.75,3.74.02,16.89,0,33.78,0,53.77Z"/>
  <path class="cls-2" d="M539.63,913.7c0-5.36.05-10.86-.02-16.37-.03-2.19,1.02-2.77,3.01-2.67,2.27.12,4.56-.12,6.82.06,2.46.19,3.4-.54,3.32-3.19-.2-6.98-.11-13.96-.12-20.95,0-4.31.02-4.31,4.18-4.31,5.85,0,11.69-.02,17.54.05,3.17.04,3.3.19,3.3,3.33,0,6.82-.1,13.64-.09,20.46,0,5.24-.56,4.52,4.75,4.56,5.36.04,10.72.12,16.08-.04,2.37-.07,3.09.72,3.01,3.05-.17,4.7-.15,9.42-.05,14.12.04,1.95-.74,2.52-2.56,2.5-5.85-.07-11.69-.07-17.54-.04-3.57.02-3.7.07-3.66,3.32.18,16.4-.43,32.8.43,49.19.54,10.35,7.62,12.75,14.79,11.46,2.7-.49,5.37-1.16,8.06-1.74,1.62-.35,2.37.27,2.52,1.96.43,5.02,1.78,9.87,3.06,14.71.57,2.16-.18,3.09-2.03,3.53-11.69,2.79-23.45,3.79-35.07.02-6.25-2.03-10.93-6.21-13.45-12.54-2-5.03-3.23-10.17-3.22-15.61.03-15.43,0-30.85-.01-46.28,0-.97.01-1.95,0-2.92q-.04-5.12-4.96-5.16c-2.27-.02-4.55-.01-6.82-.05-.3,0-.59-.21-1.26-.47Z"/>
  <path class="cls-1" d="M499.64,467.59c-44.77-.05-80.72-35.87-80.8-80.36-.08-45.59,36.59-80.87,80.7-81.1,45.26-.24,81.69,36.32,81.25,81.51-.46,47.03-38.82,80.4-81.15,79.96Z"/>
</svg>