<?xml version="1.0" encoding="UTF-8"?>
<svg id="Layer_1" data-name="Layer 1" xmlns="http://www.w3.org/2000/svg" viewBox="0 0 1000 1000">
  <defs>
    <style>
      .cls-1 {
        fill: #fbfbfb;
      }

      .cls-1, .cls-2 {
        stroke-width: 0px;
      }

      .cls-2 {
        fill: #38bbfa;
      }
    </style>
  </defs>
  <g>
    <path class="cls-2" d="M749.05,407.9c1.33,15.82-5.41,26.88-9.73,38.34-19.47,51.6-48.37,96.12-96.83,125.41-45.21,27.33-94.89,35.71-146.88,35.3-84.55-.68-154.09-33.86-211.62-94.89-16.99-18.03-34.33-35.86-53.56-51.71-53.34-43.94-118.77-46.66-175.13-6.72-16.11,11.42-30.77,24.5-42.77,40.36-2.73,3.61-5.25,7.56-12.25,10.61,6.12-23.16,13.53-43.45,22.59-63.17,43.14-93.99,119.23-135.17,219.84-137.21,54.39-1.1,106.52,7.58,153.96,35.79,37.86,22.51,68.27,53.86,98.7,85.08,22.75,23.34,46.65,45.04,79.11,53.94,55.93,15.34,103.4-.99,144.46-39.7,10-9.43,19.07-19.84,30.12-31.43Z"/>
    <path class="cls-2" d="M999.15,106.75c-4.18,26.9-14.35,51.3-26.49,74.86-40.16,77.95-106.23,116.33-191.89,122.66-60.32,4.45-118.95-2.46-172.7-33.44-32.86-18.94-59.7-45.07-86.32-71.52-13.95-13.86-27.19-28.44-42.76-40.65-62.94-49.37-141.79-44.04-197.89,13.71-9.62,9.9-18.67,20.35-29.55,29.66,5.48-22.32,12.42-43.8,22.18-64.31C318.2,44.33,395.13,5.32,495.49,2.47c95.22-2.7,170.2,36.75,233.02,104.87,13.33,14.45,27.24,28.4,42.46,40.99,58.1,48.04,131.48,47.31,188.7-2.05,14.06-12.13,27.08-25.29,39.48-39.52Z"/>
  </g>
  <g>
    <path class="cls-1" d="M327.48,863.02c1.39-.49,1.19-1.56,1.44-2.39,6.08-20.12,12.21-40.23,18.2-60.38.81-2.74,2.04-3.8,4.97-3.64,4.59.25,9.21.16,13.81-.04,2.41-.1,3.46.75,4.13,3.05,5.16,17.65,10.44,35.27,15.69,52.9,1,3.36,2.06,6.71,3.95,10.18,1.61-5.55,3.25-11.1,4.83-16.66,4.34-15.3,8.73-30.58,12.93-45.92.72-2.64,1.82-3.62,4.59-3.5,5.38.22,10.79.2,16.17,0,2.75-.1,3.11.78,2.35,3.18-5.1,16.03-10.12,32.08-15.16,48.13-4.68,14.92-9.43,29.82-13.94,44.79-.82,2.7-2.18,3.48-4.73,3.43-4.73-.09-9.48-.16-14.2.06-2.65.12-3.72-1.04-4.43-3.36-6.23-20.49-12.53-40.96-18.87-61.61-1.84,1.08-1.94,3.18-2.48,4.91-5.67,18.19-11.36,36.37-16.8,54.63-1.19,3.99-2.82,5.98-7.33,5.41-3.75-.47-7.63-.28-11.43,0-3.02.21-4.43-.79-5.34-3.75-6.62-21.61-13.41-43.18-20.15-64.75-2.86-9.16-5.71-18.32-8.65-27.45-.84-2.61-.59-3.76,2.64-3.6,5.25.26,10.53.17,15.78-.07,2.58-.12,3.69.72,4.37,3.2,4.89,17.87,9.9,35.71,14.89,53.55.91,3.24,1.85,6.47,2.79,9.72Z"/>
    <path class="cls-1" d="M683.4,881.96c-5.77,7.18-11.93,11.9-19.58,14.39-26.95,8.75-56.48-8.38-62.46-36.4-4.4-20.61-.23-38.97,15.63-53.7,16.91-15.71,48.21-18.14,65.75,2.97,1.1-.31.75-1.23.75-1.94-.04-15.52-.02-31.04-.24-46.56-.05-3.4,1.16-4.28,4.33-4.11,4.46.24,8.95.24,13.41.02,3.09-.15,3.96.86,3.94,3.97-.14,20.65-.08,41.3-.08,61.95,0,23.15-.04,46.3.06,69.45.01,2.97-.59,4.27-3.9,4.05-4.45-.3-8.95-.21-13.41.02-3.2.16-4.58-.8-4.27-4.19.27-2.85.05-5.75.05-9.93ZM621.48,845.76c-.07,17.14,10.75,31.65,30.61,32.09,17.61.39,31.19-13.78,31.31-31.71.12-17.64-13.44-31.33-31.1-31.4-17.5-.07-30.79,13.3-30.83,31.02Z"/>
    <path class="cls-1" d="M156.9,809.03c0-2.96.08-5.92-.02-8.87-.08-2.38.54-3.6,3.31-3.49,4.99.2,9.99.16,14.98-.03,2.61-.1,3.36.78,3.34,3.36-.11,11.83-.02,23.66-.03,35.49-.01,18.8-.11,37.59,0,56.39.02,3.25-.9,4.41-4.2,4.24-4.72-.25-9.46-.18-14.19-.07-2.36.06-3.34-.74-3.23-3.16.14-3.09.03-6.2.03-10.29-3.17,3.14-5.4,5.79-8.21,7.82-17.57,12.73-42.04,10.75-58.97-5.11-25.79-24.17-21.13-70.48,12.46-86.72,16.49-7.97,40.06-6.2,53.03,9.68.31.38.25,1.07.37,1.61.44-.28.88-.57,1.32-.85ZM95.16,846.15c.07,18.39,13.29,31.96,30.93,31.75,17.41-.21,30.76-13.98,30.81-31.78.05-17.93-13.53-31.52-31.38-31.4-17.4.11-30.42,13.59-30.35,31.43Z"/>
    <path class="cls-1" d="M514.33,807.94c3.24-3.64,6.02-6.35,9.33-8.45,24.05-15.24,56.04-.19,58.51,28.1,1.91,21.88.54,43.89.73,65.84.02,1.93-.88,2.54-2.62,2.55-5.65,0-11.31,0-16.96.1-2.5.05-2.3-1.65-2.31-3.2-.04-6.18-.03-12.36-.03-18.54,0-12.49.05-24.98,0-37.47-.06-11.96-5.95-20.04-15.84-21.89-13.71-2.57-24.11,2.64-28.62,14.24-1.7,4.37-2.22,8.89-2.22,13.53.01,16.44-.08,32.87.1,49.31.03,3.11-.81,4.22-3.9,4.11-4.86-.17-9.73-.18-14.59-.02-2.62.09-3.49-.97-3.46-3.43.07-5.52.02-11.04.02-16.57,0-24.85.1-49.7-.07-74.55-.03-4.01,1.13-5.3,5.09-5,4.18.32,8.43.26,12.61-.07,3.61-.28,4.7,1.08,4.28,4.47-.24,1.92-.04,3.9-.04,6.93Z"/>
    <path class="cls-1" d="M774.28,793.95c18.99.22,33.74,6.93,44.11,22.29,1.76,2.61,1.99,4.07-1.38,5.6-4.16,1.89-8.14,4.31-11.88,6.94-2.48,1.74-3.6,1.4-5.22-1-6.42-9.5-15.73-13.23-26.87-12.36-19.51,1.53-32.22,21.72-25.85,40.77,3.73,11.14,11.13,18.33,22.85,20.36,12.68,2.19,23.08-1.81,30.6-12.45,1.28-1.81,2.18-2.08,4.09-.88,4.34,2.71,8.81,5.22,13.3,7.67,2.2,1.2,2.68,2.27,1.18,4.58-12.09,18.64-34.4,27.11-56.92,21.45-21.18-5.32-36.16-23.67-38.15-45.53-2.31-25.43,12.15-45.63,30.63-53.21,3.54-1.45,7.18-2.59,10.94-3.22,3.1-.52,6.25-.76,8.57-1.03Z"/>
    <path class="cls-1" d="M869.78,794.03c14.45.08,26.34,5.27,34.88,17.33,1.58,2.24,1.98,3.71-.94,5.19-4.45,2.25-8.76,4.78-13.03,7.36-1.54.93-2.36,1.09-3.38-.68-5.25-9.12-15.58-10.92-24.09-8.38-3.98,1.19-6.67,3.72-7.31,7.91-.61,4.01,1.44,6.72,4.72,8.77,4.89,3.06,10.53,3.96,15.9,5.63,7.15,2.23,14.22,4.37,20.73,8.36,15.62,9.57,14.21,33.84,1.77,44.08-15.38,12.66-50.44,13.51-65.46-7.55-.23-.32-.49-.62-.72-.94-3.76-5.3-3.67-5.73,1.93-9.05,3.62-2.14,7.33-4.14,10.83-6.46,1.96-1.3,2.77-.97,3.87,1.03,6.05,11.02,19.8,15.24,31.36,9.79,3.54-1.67,5.48-4.33,5.66-8.28.17-3.95-2.01-6.48-5.23-8.1-8.16-4.09-17.22-5.57-25.72-8.71-4.59-1.7-9.06-3.59-12.8-6.8-14.34-12.35-11.58-35.17,5.46-45.11,6.64-3.88,13.92-5.39,21.56-5.39Z"/>
    <path class="cls-1" d="M960.78,794.02c14.32.1,26.02,5.36,34.62,17.14,2.07,2.84,1.5,4.31-1.32,5.8-4.18,2.21-8.36,4.44-12.37,6.93-1.81,1.12-2.62.82-3.75-.82-5.82-8.39-14.35-11.23-24.13-8.16-3.66,1.15-6.16,3.53-6.85,7.39-.73,4.1.99,7.11,4.5,9.26,4.91,3.01,10.54,3.95,15.91,5.61,6.9,2.13,13.83,4.06,20.09,7.91,16.72,10.28,15.11,33.69,2.44,44.45-15.67,13.31-53.7,13.82-67.64-10.71-1.62-2.86-1.57-4.13,1.52-5.68,4.45-2.23,8.65-4.98,12.85-7.68,1.8-1.16,2.83-.93,3.64.98,5.18,12.28,20.68,13.98,30.18,10.52,4.12-1.5,6.92-4.22,7.02-8.98.09-4.36-2.72-6.78-6.13-8.37-8.01-3.72-16.78-5.25-25.03-8.32-4.58-1.71-9.09-3.55-12.79-6.81-14.25-12.57-11.09-36.2,6.01-45.33,6.59-3.52,13.23-5.12,21.24-5.12Z"/>
    <path class="cls-1" d="M18.03,846.59c0-9.2-.15-17.35.08-25.5.08-3.07-.89-3.81-3.79-3.62-3.93.26-7.88-.03-11.83.06-2.03.05-2.81-.69-2.77-2.73.09-5.13.1-10.25.02-15.38-.03-2.05.76-2.77,2.78-2.73,3.55.07,7.11-.28,10.64-.05,3.63.24,5.1-.72,4.85-4.73-.39-6.15-.03-12.35-.12-18.53-.03-2.41.58-3.8,3.25-4.44,5.23-1.25,10.39-2.85,15.5-4.53,2.62-.86,3.08-.13,3.06,2.42-.06,8.81.26,17.61.15,26.42-.04,2.85.93,3.5,3.55,3.42,5.65-.17,11.31.04,16.96-.12,2.78-.08,3.99.54,3.76,3.7-.33,4.44-.27,8.95.03,13.4.22,3.26-1.06,3.97-4.03,3.88-5.78-.18-11.57.05-17.35-.06-2.21-.04-2.97.67-2.96,2.92.08,15.25-.06,30.5.08,45.75.06,6.49,2.76,9.44,9.16,10.13,3.9.42,7.88.36,11.81.2,2.35-.09,3.33.44,3.24,2.97-.16,4.46-.01,8.94,0,13.41,0,1.69-.22,3.09-2.38,3.39-8.68,1.21-17.27,1.26-25.79-1.21-11.03-3.2-16.19-11.13-17.45-21.92-1.07-9.15-.22-18.39-.46-26.54Z"/>
    <path class="cls-1" d="M270.79,823.68c0,22.88-.05,45.76.06,68.63.01,2.89-.72,4.04-3.72,3.92-4.99-.19-10-.18-14.99-.03-2.49.07-3.21-.94-3.16-3.24.09-4.21-.01-8.41-.01-12.62,0-41.42,0-82.83.02-124.25,0-5.34.07-5.37,5.25-5.39,4.34-.02,8.69.18,13.02,0,2.79-.12,3.51.82,3.5,3.57-.11,23.14-.06,46.28-.06,69.42h.1Z"/>
    <path class="cls-1" d="M224.57,846.65c0,15.24-.09,30.48.09,45.72.04,3.12-1.08,3.84-3.84,3.77-4.33-.12-8.68-.17-13.01.07-3.67.2-4.94-.96-4.91-4.86.19-25.75.13-51.5.14-77.25,0-4.73.06-9.46-.05-14.19-.05-2.28.64-3.33,3.13-3.26,4.99.13,9.99.12,14.98-.07,2.74-.11,3.55.82,3.53,3.57-.12,15.5-.06,31.01-.05,46.51Z"/>
    <path class="cls-1" d="M468.32,846.36c0,15.13-.11,30.25.08,45.38.04,3.52-1.1,4.65-4.5,4.48-4.46-.22-8.95-.24-13.41,0-3.09.17-3.89-1.22-3.84-3.92.07-4.21,0-8.42.01-12.62.02-26.04.15-52.09-.02-78.13-.03-4.09,1.14-5.28,5.11-4.96,4.31.35,8.68.19,13.01-.01,2.8-.13,3.54.91,3.52,3.61-.11,15.39-.05,30.78-.05,46.16h.09Z"/>
    <path class="cls-1" d="M213.83,782.18c-7.42.05-13.66-6.29-13.66-13.86,0-7.8,5.96-13.93,13.49-13.89,7.94.04,14.11,6.35,14.03,14.36-.07,7.03-6.59,13.34-13.86,13.39Z"/>
    <path class="cls-1" d="M457.69,782.11c-7.31.07-14.15-6.47-14.17-13.56-.03-7.43,6.35-14.03,13.62-14.09,7.69-.06,14.18,6.13,14.4,13.72.2,7.01-6.6,13.85-13.84,13.93Z"/>
  </g>
</svg>